<?xml version="1.0" encoding="UTF-8"?>
<svg version="1.1" xmlns="http://www.w3.org/2000/svg" width="512" height="512">
<path d="M0 0 C1.19367188 -0.01675781 2.38734375 -0.03351562 3.6171875 -0.05078125 C9.96570516 0.6066933 14.06990363 3.5104122 18.125 8.3125 C22.125 16.3125 22.125 16.3125 22.125 42.3125 C78.225 42.3125 134.325 42.3125 192.125 42.3125 C192.125 33.7325 192.125 25.1525 192.125 16.3125 C198.725 3.1125 198.725 3.1125 207.125 0.3125 C214.63477012 -0.35545922 221.35867296 -0.82164481 227.578125 3.8828125 C231.72576155 7.71623416 234.9219756 11.60812763 235.35205078 17.33691406 C235.34157715 18.48901367 235.33110352 19.64111328 235.3203125 20.828125 C235.31386719 22.07851563 235.30742187 23.32890625 235.30078125 24.6171875 C235.28402344 25.91914063 235.26726562 27.22109375 235.25 28.5625 C235.24097656 29.87992188 235.23195313 31.19734375 235.22265625 32.5546875 C235.19908533 35.80747462 235.16618022 39.05989589 235.125 42.3125 C235.90399658 42.29678955 236.68299316 42.2810791 237.4855957 42.26489258 C272.73944116 41.64959238 304.58985235 46.77021428 331.22167969 71.93798828 C349.32610803 89.72695258 362.88993098 114.73435059 363.25922108 140.57450581 C363.2685915 142.66727384 363.27252952 144.76007051 363.27217102 146.8528595 C363.27584771 148.00995271 363.2795244 149.16704592 363.2833125 150.35920256 C363.29239967 153.55809107 363.29704029 156.75694941 363.29970181 159.95584857 C363.30362154 163.41146117 363.31319875 166.86705915 363.32191467 170.32266235 C363.3416338 178.66250428 363.35174024 187.00234734 363.36064246 195.34220675 C363.36503348 199.27734504 363.37039823 203.212482 363.37563133 207.14761925 C363.39264028 220.2427292 363.40713156 233.33783835 363.41438007 246.43295765 C363.41628972 249.82761956 363.41821009 253.22228147 363.42016602 256.61694336 C363.42064976 257.46058847 363.4211335 258.30423358 363.4216319 259.1734437 C363.42992146 272.82141773 363.45524169 286.46930382 363.48774669 300.11723951 C363.52090428 314.15456382 363.53883673 328.19184357 363.54202431 342.22920722 C363.54418155 350.10035293 363.55281407 357.97137046 363.57848549 365.8424778 C363.60031187 372.54984718 363.60818486 379.25705722 363.59851871 385.96445809 C363.59400791 389.37950905 363.59790161 392.79396849 363.61528015 396.2090168 C363.78311969 431.16819082 354.82938032 458.46045416 330.61328125 483.95703125 C305.65562114 508.22673135 274.88227342 512.94908099 241.56958103 512.83539867 C237.59402887 512.82624892 233.61854367 512.84036645 229.64300537 512.85131836 C221.87891402 512.86900357 214.11497828 512.86530856 206.3508811 512.8536678 C200.03470946 512.84459406 193.71858109 512.8434264 187.40240479 512.84776306 C186.0483808 512.84868246 186.0483808 512.84868246 184.6670028 512.84962043 C182.83259756 512.85089947 180.99819234 512.85219633 179.16378713 512.8535108 C162.00642618 512.8648873 144.84915104 512.85184905 127.69180417 512.83030933 C113.00477964 512.81244102 98.31788162 512.81554596 83.63085938 512.83398438 C66.5303305 512.85544304 49.42987663 512.86378894 32.32933617 512.85153532 C30.50208919 512.85026127 28.67484221 512.84900378 26.84759521 512.84776306 C25.94880964 512.84714596 25.05002407 512.84652886 24.12400258 512.84589306 C17.8233929 512.84245511 11.52283124 512.84823474 5.222229 512.85768127 C-2.46754259 512.86895837 -10.1571511 512.86574222 -17.84690428 512.8445583 C-21.76216564 512.83412405 -25.67715617 512.82979376 -29.59241486 512.84315491 C-65.83804426 512.95640608 -93.91890883 505.06547876 -120.51953125 479.80078125 C-144.30411823 455.34198551 -149.50441105 425.09333311 -149.37670898 392.3449707 C-149.3782911 389.55879648 -149.38585337 386.77264525 -149.39308167 383.98648071 C-149.40691488 377.24607728 -149.39953273 370.50586295 -149.38440608 363.76546875 C-149.36742838 355.89676571 -149.37077084 348.02810822 -149.37450016 340.1593925 C-149.38036027 326.11069967 -149.36627861 312.06209685 -149.34155273 298.01342773 C-149.31762368 284.4157372 -149.31055622 270.8181668 -149.32104492 257.22045898 C-149.33248038 242.36900519 -149.33435287 227.51760677 -149.31994683 212.66615361 C-149.31842117 211.07964814 -149.31690081 209.49314267 -149.31538582 207.90663719 C-149.314628 207.12628623 -149.31387019 206.34593526 -149.31308941 205.5419373 C-149.30836794 200.07098781 -149.31018266 194.60006324 -149.31445122 189.12911415 C-149.31940175 182.45449404 -149.31328759 175.77998699 -149.29355692 169.10539261 C-149.28375475 165.70694266 -149.28013588 162.30880566 -149.28644943 158.910326 C-149.34152347 124.99977693 -141.32207745 97.02518188 -117.1875 72.125 C-94.67616451 49.76356945 -65.2867865 42.11542223 -34.4375 42.1875 C-29.91643076 42.20840691 -25.39572794 42.25331029 -20.875 42.3125 C-20.91427612 41.10303711 -20.91427612 41.10303711 -20.9543457 39.86914062 C-21.05886261 36.18379528 -21.12350239 32.49876262 -21.1875 28.8125 C-21.22939453 27.5440625 -21.27128906 26.275625 -21.31445312 24.96875 C-21.41255958 17.43417444 -21.06312251 12.0422397 -15.875 6.3125 C-10.73818103 1.55154583 -7.01294988 0.02262242 0 0 Z M-70.875 92.8125 C-71.546521 93.15361816 -72.21804199 93.49473633 -72.90991211 93.84619141 C-88.24625539 102.0491399 -98.30724412 115.88439839 -103.84765625 132.171875 C-107.26894828 144.96591591 -105.875 156.60007088 -105.875 170.3125 C34.705 170.3125 175.285 170.3125 320.125 170.3125 C320.125 144.09982839 319.79072788 122.79182866 300.94921875 103.9375 C286.98226334 90.95576551 270.59054539 85.8253655 251.76611328 85.93154907 C250.47392443 85.9268691 249.18173557 85.92218913 247.85038948 85.91736734 C244.2976904 85.90494619 240.74523583 85.91098667 237.19253635 85.92032599 C233.34788493 85.92715297 229.50327365 85.91661729 225.65863037 85.90838623 C218.14039631 85.89508539 210.62225238 85.8979103 203.10401487 85.90662415 C196.99074282 85.91341471 190.87749593 85.9143115 184.76422119 85.9110527 C183.45633579 85.91036316 183.45633579 85.91036316 182.12202847 85.90965968 C180.35042365 85.90870045 178.57881883 85.90772781 176.80721402 85.9067419 C160.21662424 85.8981987 143.62608428 85.90800532 127.03550267 85.924143 C112.8172633 85.93754521 98.59909742 85.93521681 84.38085938 85.92138672 C67.8473712 85.90531198 51.31392664 85.89902257 34.78043175 85.90822351 C33.01554744 85.9091791 31.25066313 85.91012221 29.48577881 85.9110527 C28.61754836 85.91151553 27.74931792 85.91197836 26.85477746 85.91245521 C20.75280399 85.91503942 14.65085832 85.9106864 8.54888916 85.90361404 C1.10695893 85.89517777 -6.33487643 85.89752374 -13.77679586 85.91345628 C-17.56971803 85.92131047 -21.36248234 85.92447963 -25.15540314 85.91450882 C-29.27577573 85.90384146 -33.3957539 85.9166262 -37.51611328 85.93154907 C-38.70251341 85.92485691 -39.88891354 85.91816474 -41.11126518 85.91126978 C-51.64955213 85.98506161 -61.45636114 88.00639262 -70.875 92.8125 Z M-105.875 214.3125 C-122.8735262 318.02483009 -122.8735262 318.02483009 -85.875 452.3125 C-66.41718647 469.05010565 -45.38877414 469.92314602 -20.87508202 469.83539867 C-17.09039894 469.826259 -13.30578665 469.84036158 -9.52111816 469.85131836 C-2.12773138 469.86901409 5.26549208 469.86530381 12.658885 469.8536678 C18.67287208 469.84459827 24.6868137 469.84342461 30.70080566 469.84776306 C31.55993097 469.84837599 32.41905627 469.84898893 33.30421567 469.84962043 C35.05004344 469.85089946 36.79587119 469.85219631 38.54169893 469.8535108 C54.874921 469.86489038 71.20805296 469.85184418 87.54126024 469.83030933 C101.52624983 469.81244074 115.51110656 469.81554558 129.49609375 469.83398438 C145.77476052 469.85543757 162.0533485 469.86379199 178.33202744 469.85153532 C180.07108306 469.85026125 181.81013869 469.84900377 183.54919434 469.84776306 C184.40462554 469.84714596 185.26005675 469.84652886 186.14141011 469.84589306 C192.14137125 469.84245347 198.14128202 469.84823831 204.14123535 469.85768127 C211.46294179 469.86895224 218.78447692 469.86575491 226.10616398 469.8445583 C229.83484373 469.83411591 233.56323887 469.82980802 237.29191589 469.84315491 C262.78920822 469.92673791 283.95988443 468.09810833 303.125 449.3125 C352.09988408 392.37818203 320.125 234.36148652 320.125 214.3125 C179.545 214.3125 38.965 214.3125 -105.875 214.3125 Z " fill="#488ABE" transform="translate(148.875,-0.3125)"/>
<path d="M0 0 C1.18545914 -0.01283524 2.37091827 -0.02567047 3.59230042 -0.03889465 C4.87144821 -0.04628159 6.15059601 -0.05366852 7.46850586 -0.0612793 C8.12409422 -0.06535482 8.77968258 -0.06943035 9.45513725 -0.07362938 C12.93021194 -0.09446151 16.40524756 -0.10877137 19.88037109 -0.11816406 C23.44200464 -0.12917859 27.00300481 -0.16352777 30.56441593 -0.20333576 C33.32623829 -0.2296914 36.08791461 -0.23787283 38.84985161 -0.24144554 C40.79224993 -0.24859075 42.73454763 -0.27495249 44.67677307 -0.30183411 C57.69727081 -0.27028828 67.32353044 3.60043501 77.12084961 12.17700195 C87.2412687 23.01130952 89.43353995 35.1053764 89.42163086 49.48168945 C89.42591599 50.64145294 89.43020111 51.80121643 89.43461609 52.99612427 C89.44033421 55.43840892 89.44087833 57.88071059 89.43652344 60.32299805 C89.43336515 64.03374655 89.4568499 67.7436956 89.48217773 71.4543457 C89.48445133 73.83845929 89.48515394 76.222575 89.48413086 78.60668945 C89.49334061 79.70286591 89.50255035 80.79904236 89.51203918 81.92843628 C89.434906 94.94629751 85.82212083 106.70355305 76.97631836 116.48168945 C66.26337891 126.26993308 55.37656378 128.64360187 41.28491211 128.6105957 C39.96977631 128.61583755 38.6546405 128.62107941 37.2996521 128.6264801 C34.52771336 128.63536564 31.75606341 128.63304147 28.98413086 128.62304688 C25.46178241 128.61157343 21.94043903 128.63176552 18.41822243 128.66096401 C15.01956926 128.68390717 11.62114044 128.67685102 8.22241211 128.6730957 C6.9731192 128.68432968 5.72382629 128.69556366 4.43667603 128.70713806 C-8.29711023 128.60687245 -18.58837689 124.80857351 -28.03930664 116.2121582 C-35.55111837 108.44761263 -39.9480849 98.40536321 -40.05615234 87.58911133 C-40.06898758 86.46694214 -40.08182281 85.34477295 -40.095047 84.18859863 C-40.10243393 82.97820923 -40.10982086 81.76781982 -40.11743164 80.52075195 C-40.12550339 79.26750122 -40.13357513 78.01425049 -40.14189148 76.72302246 C-40.15572609 74.06669429 -40.16674261 71.41048988 -40.17431641 68.75415039 C-40.18313928 66.0501425 -40.20392678 63.34665473 -40.23583984 60.64282227 C-40.27873681 56.72697591 -40.29471958 52.81180482 -40.30493164 48.89575195 C-40.32243973 47.7015564 -40.33994781 46.50736084 -40.35798645 45.27697754 C-40.32519997 32.41835851 -36.67644843 21.5053389 -27.87915039 12.02075195 C-20.08167338 4.55745252 -10.82044011 0.10226468 0 0 Z M3.12084961 43.17700195 C3.12084961 57.03700195 3.12084961 70.89700195 3.12084961 85.17700195 C16.98084961 85.17700195 30.84084961 85.17700195 45.12084961 85.17700195 C45.12084961 71.31700195 45.12084961 57.45700195 45.12084961 43.17700195 C31.26084961 43.17700195 17.40084961 43.17700195 3.12084961 43.17700195 Z " fill="#488ABE" transform="translate(124.879150390625,255.822998046875)"/>
</svg>
