<?xml version="1.0" encoding="UTF-8"?>
<svg version="1.1" xmlns="http://www.w3.org/2000/svg" width="512" height="512">
<path d="M0 0 C1.26281799 -0.01429802 1.26281799 -0.01429802 2.55114746 -0.02888489 C3.45530396 -0.02797348 4.35946045 -0.02706207 5.29101562 -0.02612305 C6.23352173 -0.03040817 7.17602783 -0.0346933 8.14709473 -0.03910828 C10.14427896 -0.0448498 12.1414841 -0.04535315 14.13867188 -0.04101562 C17.15857926 -0.03788194 20.17748121 -0.06122508 23.19726562 -0.08666992 C43.2699345 -0.15552592 59.78676348 3.90029969 74.68579102 17.99536133 C79.26924841 22.58590289 82.65539689 27.5742125 85.69726562 33.2746582 C86.16777344 34.12415039 86.63828125 34.97364258 87.12304688 35.84887695 C91.50422921 44.49492705 93.69726562 54.58623057 93.69726562 64.2746582 C94.65620846 64.2718103 94.65620846 64.2718103 95.63452387 64.26890486 C133.57158447 64.15687802 171.50862049 64.0711566 209.44581279 64.01933156 C214.00668146 64.01307844 218.5675498 64.00660679 223.12841797 64 C224.03635851 63.99868845 224.94429905 63.9973769 225.87975293 63.9960256 C240.55771099 63.9743023 255.23557058 63.93489782 269.91347033 63.88889422 C284.98790687 63.84204381 300.06229203 63.81434471 315.13679838 63.80421573 C324.42955751 63.79737432 333.72203824 63.77581072 343.01471162 63.73507587 C349.39751493 63.70853136 355.78017549 63.70068353 362.16302991 63.70715132 C365.83903638 63.71033614 369.51455831 63.70564986 373.19047737 63.67863083 C397.2448038 63.51072884 415.17583015 65.78896005 433.41601562 82.90356445 C447.15784988 97.18660108 451.36291875 114.06932067 451.02276611 133.2442627 C450.62661903 143.23109663 448.56236634 152.90582833 446.53320312 162.6652832 C446.09764811 164.83243762 445.6636508 166.99990562 445.23110962 169.16766357 C444.32787178 173.67128475 443.41062143 178.17172544 442.48193359 182.67016602 C441.30310936 188.38272584 440.15325447 194.10063288 439.0130825 199.82101822 C438.12132835 204.28433491 437.21764093 208.74516951 436.31016922 213.20531464 C435.88247201 215.31109071 435.45750953 217.41742447 435.03556442 219.52436066 C428.44168304 252.30610708 417.16223303 281.41605945 388.69726562 301.30200195 C366.72997255 315.74664128 345.44290255 320.72980112 319.34985352 320.70703125 C317.23928765 320.71606558 315.12872699 320.72639685 313.01817322 320.73791504 C307.33327821 320.76531487 301.64848322 320.77474629 295.96353078 320.78076911 C290.00579374 320.79019737 284.04813012 320.81640415 278.09043884 320.84077454 C266.82867546 320.88432127 255.56692643 320.91294074 244.30510467 320.93609792 C231.47545411 320.9632132 218.64587784 321.00712067 205.81628048 321.05238664 C179.4433159 321.14506344 153.07032802 321.21682162 126.69726562 321.2746582 C127.80348799 323.53205747 128.91447191 325.78689445 130.02832031 328.04052734 C130.33953827 328.67687355 130.65075623 329.31321976 130.97140503 329.96884918 C138.01415383 344.17703772 150.24100645 352.2807716 164.58007812 358.23168945 C171.38556476 360.50871318 177.88322682 361.57269625 185.04602051 361.5262146 C185.83548584 361.52918474 186.62495118 361.53215488 187.43833971 361.53521502 C190.0566255 361.54279107 192.67468269 361.53638757 195.29296875 361.5300293 C197.18114879 361.53278216 199.06932767 361.53646385 200.95750427 361.54100037 C205.01053942 361.54908714 209.06351948 361.55128721 213.11656189 361.54905319 C219.52994259 361.54621138 225.94321391 361.56060379 232.35656738 361.57803345 C250.58909476 361.62497971 268.82161405 361.64900352 287.05419922 361.65551758 C297.13390602 361.65927073 307.21348838 361.6773174 317.29314184 361.71061194 C323.66410331 361.73079736 330.03474323 361.73321057 336.40572357 361.72233176 C340.37338007 361.71971999 344.34085023 361.73375093 348.30845833 361.7524128 C350.142994 361.75772326 351.97756424 361.75625764 353.81208611 361.7473774 C373.88387106 361.65807949 373.88387106 361.65807949 380.55236053 368.05389977 C386.31600029 374.32146791 387.20836492 379.29958366 387.07617188 387.78637695 C386.38604767 394.13978843 383.35774114 397.93990226 378.75976562 402.1496582 C373.32128191 405.92329997 368.30560942 406.56958716 361.81452942 406.53535461 C360.65088514 406.54109293 360.65088514 406.54109293 359.4637329 406.54694718 C356.87329461 406.55723658 354.28307968 406.55329259 351.69262695 406.54931641 C349.83096614 406.55366554 347.96930712 406.55884936 346.10765076 406.56480408 C341.05315234 406.57819427 335.99872871 406.57877194 330.94421601 406.57624078 C326.7131858 406.57516952 322.48217062 406.5800592 318.25114363 406.5848462 C308.25311099 406.5959448 298.2551159 406.596379 288.25708008 406.59033203 C277.98262178 406.58431256 267.70830113 406.59655073 257.43386632 406.6179021 C248.58765288 406.63560184 239.74148288 406.64150572 230.89525241 406.63826436 C225.62358437 406.63646217 220.35201416 406.63897881 215.08036232 406.6529789 C210.10871303 406.66568676 205.13727501 406.66349256 200.16562843 406.65056801 C198.35625126 406.6482293 196.54685864 406.65083771 194.73749924 406.65919113 C161.3024324 406.80222411 132.24867002 397.59058133 108.00976562 374.0871582 C99.19615228 365.19867512 92.78044797 354.99246604 87.32226562 343.7746582 C87.01248779 343.14785156 86.70270996 342.52104492 86.38354492 341.87524414 C79.39944656 326.74018036 78.13010044 309.98063774 76.18554688 293.6496582 C75.93526194 291.58951677 75.68332503 289.5295817 75.43124014 287.46965981 C74.15974384 277.07450647 72.92518207 266.67503698 71.69726562 256.2746582 C71.58966636 255.36339172 71.48206709 254.45212524 71.37120724 253.51324463 C68.54738116 229.5860013 65.7550937 205.65505498 62.96484375 181.72387695 C62.83877487 180.64277838 62.71270599 179.5616798 62.58281684 178.44782066 C61.15373763 166.19097707 59.72869506 153.9336787 58.31079102 141.67553711 C57.16204546 131.7447674 56.0060953 121.81486478 54.8419264 111.88589096 C54.23228276 106.68371926 53.62631765 101.48118002 53.02943993 96.27752686 C52.47412835 91.43631699 51.90942641 86.59629608 51.33747482 81.75702477 C51.13035826 79.99015833 50.92670891 78.22288136 50.72685051 76.45517921 C50.45310975 74.03856826 50.16676837 71.62376253 49.87736511 69.20898438 C49.80206878 68.51720785 49.72677245 67.82543133 49.64919442 67.11269188 C48.71931197 59.59960878 46.77502133 53.13686277 40.69726562 48.2746582 C35.22366303 44.86360051 30.71977648 43.705478 24.32226562 43.8059082 C23.55350098 43.79885864 22.78473633 43.79180908 21.99267578 43.7845459 C19.56052592 43.76269359 17.12948354 43.76546724 14.69726562 43.7746582 C11.48834392 43.7867842 8.28104676 43.77283268 5.07226562 43.7434082 C4.35119629 43.75472778 3.63012695 43.76604736 2.88720703 43.77770996 C-4.03076234 43.70987886 -9.17907124 41.35112882 -14.11523438 36.5246582 C-18.11194636 30.58668611 -20.5105931 24.56298755 -19.30273438 17.2746582 C-17.16696147 9.81216595 -13.15198275 5.05748194 -6.46032715 1.21736145 C-4.11753301 0.19373935 -2.54314796 0.01590771 0 0 Z M98.69726562 107.2746582 C101.06371413 129.4315277 103.50000894 151.57747931 106.0988462 173.70849991 C106.42274651 176.46851768 106.74557868 179.22866005 107.0684436 181.9887991 C107.82842072 188.48562542 108.59001553 194.98226052 109.3527832 201.47875977 C110.13559686 208.14622129 110.91564476 214.81400253 111.69442338 221.48193645 C112.37158462 227.27906537 113.05032688 233.07600763 113.73036414 238.87279987 C114.13307795 242.3057123 114.53522468 245.73868855 114.93585777 249.17184448 C115.37870222 252.96285888 115.8241374 256.75356006 116.27026367 260.54418945 C116.40064529 261.66497894 116.53102692 262.78576843 116.6653595 263.94052124 C116.78716583 264.97093536 116.90897217 266.00134949 117.0344696 267.06298828 C117.1389677 267.95423904 117.24346579 268.84548981 117.35113049 269.76374817 C117.69995519 272.29416868 118.17023402 274.77581132 118.69726562 277.2746582 C146.22720754 277.34483512 173.75713599 277.39768891 201.28714943 277.43009472 C214.0706952 277.44554329 226.85418529 277.46659435 239.63769531 277.50097656 C250.78379968 277.53094048 261.92986372 277.55024781 273.07600725 277.55692369 C278.97416007 277.56082409 284.87219752 277.56994865 290.77031326 277.59184837 C296.33033504 277.61232403 301.89019472 277.61846971 307.45025063 277.61398125 C309.48265147 277.61480151 311.51505817 277.62070071 313.54742622 277.63227463 C333.04915299 277.73781533 349.84779202 275.55865089 365.69726562 263.2746582 C366.41011719 262.7280957 367.12296875 262.1815332 367.85742188 261.6184082 C386.37914551 246.4869808 389.60592615 222.52670516 394.06054688 200.47387695 C394.35479585 199.02383742 394.35479585 199.02383742 394.65498924 197.54450417 C395.68992855 192.44410651 396.71953299 187.34266822 397.74438477 182.24023438 C398.79830524 176.99820284 399.87007587 171.75998729 400.94591999 166.52241802 C401.77664088 162.46214672 402.59437008 158.39933647 403.40862083 154.33573341 C403.79813579 152.40320837 404.19242174 150.47163815 404.59173012 148.5411129 C405.14889028 145.84116813 405.68748493 143.13811479 406.22192383 140.43359375 C406.47036041 139.2605217 406.47036041 139.2605217 406.72381592 138.06375122 C407.99191984 131.47852301 408.13856321 124.7473148 405.53320312 118.4699707 C401.28459038 112.44920933 397.14654729 108.74032198 389.69726562 107.2746582 C388.02013154 107.18649719 386.33986895 107.15088772 384.66041946 107.15161037 C383.63878716 107.14961933 382.61715485 107.14762828 381.56456399 107.14557689 C379.88364211 107.14994616 379.88364211 107.14994616 378.16876221 107.15440369 C376.38116505 107.15312205 376.38116505 107.15312205 374.55745482 107.15181452 C371.24861223 107.15045081 367.9398286 107.15358138 364.63099313 107.15859258 C361.06320461 107.16290682 357.49541795 107.16144996 353.92762756 107.16069031 C347.74585793 107.16016569 341.56409883 107.163306 335.38233185 107.16892815 C326.44451008 107.17705157 317.50669342 107.17965923 308.56886837 107.18091614 C294.06820753 107.18310533 279.56755232 107.18976183 265.06689453 107.19921875 C250.97998076 107.20839629 236.89306851 107.21547546 222.80615234 107.21972656 C221.93798752 107.21998929 221.06982271 107.22025201 220.17534986 107.22052269 C215.82006767 107.22182772 211.46478548 107.22309143 207.10950327 107.2243346 C170.97208675 107.23470308 134.83467663 107.2523178 98.69726562 107.2746582 Z " fill="#FFFFFF" transform="translate(61.302734375,-0.274658203125)"/>
<path d="M0 0 C8.04495995 7.21112533 13.32119682 17.92789532 14.0859375 28.671875 C14.3575139 42.26498858 11.2330352 53.36185707 1.84765625 63.48046875 C-8.53485152 73.4180119 -19.692931 75.82739256 -33.58984375 75.6015625 C-44.65983115 75.14485735 -54.41738435 69.57538224 -61.90234375 61.57421875 C-70.78118807 50.80012228 -73.05822601 39.01310628 -72.15234375 25.32421875 C-70.35208486 14.31087025 -63.90824019 4.15880458 -55.15234375 -2.67578125 C-36.81823056 -13.93137598 -17.13633142 -13.34208018 0 0 Z " fill="#FFFFFF" transform="translate(413.15234375,436.67578125)"/>
<path d="M0 0 C8.04495995 7.21112533 13.32119682 17.92789532 14.0859375 28.671875 C14.3575139 42.26498858 11.2330352 53.36185707 1.84765625 63.48046875 C-8.53485152 73.4180119 -19.692931 75.82739256 -33.58984375 75.6015625 C-44.65983115 75.14485735 -54.41738435 69.57538224 -61.90234375 61.57421875 C-70.78118807 50.80012228 -73.05822601 39.01310628 -72.15234375 25.32421875 C-70.35208486 14.31087025 -63.90824019 4.15880458 -55.15234375 -2.67578125 C-36.81823056 -13.93137598 -17.13633142 -13.34208018 0 0 Z " fill="#FFFFFF" transform="translate(221.15234375,436.67578125)"/>
<path d="M0 0 C1.65092192 -0.00269878 3.30184228 -0.0065844 4.95275879 -0.01159668 C8.40241725 -0.01747365 11.85165967 -0.00898742 15.30126953 0.00976562 C19.70612968 0.03255447 24.11001473 0.01942163 28.51483917 -0.00452423 C31.92082972 -0.0190313 35.32659201 -0.01435388 38.73258972 -0.00401306 C40.35597349 -0.0013593 41.9793785 -0.00456762 43.60273743 -0.01393127 C60.73720925 -0.09109308 60.73720925 -0.09109308 68.1171875 6.27734375 C68.78621094 7.11458984 68.78621094 7.11458984 69.46875 7.96875 C70.16097656 8.80212891 70.16097656 8.80212891 70.8671875 9.65234375 C74.5737031 15.33015905 74.84345711 20.93197633 74.09375 27.53125 C72.08909201 33.95699155 68.18722695 38.67645996 62.40609741 42.14271545 C58.65144025 43.71666605 55.46947746 43.96154526 51.47119141 43.93530273 C50.73214066 43.94216599 49.9930899 43.94902924 49.23164368 43.95610046 C46.80266791 43.97431428 44.37434153 43.97053837 41.9453125 43.96484375 C40.24669181 43.9694087 38.54807297 43.97471521 36.84945679 43.98072815 C33.29376715 43.98964901 29.73830223 43.9872485 26.18261719 43.97729492 C21.64098045 43.96581614 17.1001225 43.98600483 12.55858803 44.01521206 C9.05139288 44.03361958 5.54438271 44.03327241 2.03715134 44.02757454 C0.36351811 44.02742183 -1.31012807 44.0334244 -2.98371506 44.04586601 C-19.21499048 44.14952476 -19.21499048 44.14952476 -25.90625 39.53125 C-27.96484375 37.4609375 -27.96484375 37.4609375 -29.34375 35.40625 C-29.81683594 34.72304688 -30.28992188 34.03984375 -30.77734375 33.3359375 C-33.06390977 29.68059666 -33.10143805 27.11139442 -33.15625 22.78125 C-33.18203125 21.56953125 -33.2078125 20.3578125 -33.234375 19.109375 C-32.64761362 12.71088183 -29.73745191 8.61093161 -24.90625 4.53125 C-17.17175066 -0.71387385 -8.98368009 -0.05181855 0 0 Z " fill="#FFFFFF" transform="translate(32.90625,276.46875)"/>
<path d="M0 0 C1.11521027 -0.01606293 2.23042053 -0.03212585 3.37942505 -0.04867554 C8.49690924 -0.09313397 13.61430399 -0.13465434 18.73193359 -0.15722656 C21.42857082 -0.17052607 24.12444412 -0.19830091 26.82080078 -0.23925781 C30.71002943 -0.2941365 34.59822877 -0.3159217 38.48779297 -0.33056641 C39.687034 -0.35323578 40.88627502 -0.37590515 42.12185669 -0.39926147 C50.24460399 -0.37884912 55.27628269 1.00873433 61.18191528 6.63589478 C65.55465529 11.4390137 67.18669452 16.51465137 66.97607422 22.98193359 C65.97989844 30.1190917 63.16432966 35.55269448 57.54638672 40.03662109 C53.52740708 42.50983933 50.00161065 43.44479485 45.30151367 43.49926758 C43.72881462 43.52324867 43.72881462 43.52324867 42.12434387 43.54771423 C41.00033676 43.55307693 39.87632965 43.55843964 38.71826172 43.56396484 C36.96656929 43.57750755 36.96656929 43.57750755 35.17948914 43.59132385 C32.70912231 43.60582069 30.23871714 43.61471167 27.76831055 43.6184082 C24.0107244 43.63027401 20.2547969 43.67944351 16.49755859 43.72998047 C14.09196761 43.73944881 11.68636658 43.74668188 9.28076172 43.75146484 C8.16687576 43.77099716 7.05298981 43.79052948 5.90534973 43.81065369 C-1.47839264 43.76848563 -7.20791044 42.47386302 -13.33251953 38.19287109 C-19.04092139 32.19845738 -19.6994266 26.45685845 -19.60205078 18.48974609 C-19.14221566 12.86509626 -17.55831764 9.19872867 -13.35595703 5.41162109 C-8.76671984 1.87373642 -5.84922146 0.07644437 0 0 Z " fill="#FFFFFF" transform="translate(19.33251953125,191.80712890625)"/>
<path d="M0 0 C0.88257477 -0.00428513 1.76514954 -0.00857025 2.67446899 -0.01298523 C4.53524928 -0.01870903 6.39605193 -0.01924322 8.25683594 -0.01489258 C11.08567982 -0.01173647 13.91347295 -0.03520262 16.7421875 -0.06054688 C18.55729036 -0.06282064 20.372396 -0.06352301 22.1875 -0.0625 C23.02421234 -0.07170975 23.86092468 -0.08091949 24.72299194 -0.09040833 C31.4289777 -0.038253 36.55754152 1.45832719 42.4140625 4.86328125 C47.03722108 9.73634029 49.97801706 15.5342725 50.3515625 22.30078125 C50.00199724 28.00138401 48.13928355 32.73213855 44.7265625 37.30078125 C39.53759889 41.8526657 34.57464886 44.37934519 27.65161133 44.4777832 C26.86011185 44.49061844 26.06861237 44.50345367 25.25312805 44.51667786 C24.40518173 44.52406479 23.55723541 44.53145172 22.68359375 44.5390625 C21.80056076 44.54713425 20.91752777 44.55520599 20.00773621 44.56352234 C18.13921049 44.57733763 16.2706598 44.58807118 14.40209961 44.59594727 C12.50228416 44.60744952 10.60250057 44.62787346 8.70288086 44.6574707 C5.94623024 44.70039723 3.19053822 44.71635188 0.43359375 44.7265625 C-0.40423141 44.74407059 -1.24205658 44.76157867 -2.10527039 44.77961731 C-8.86089507 44.75513445 -15.12451561 43.26603235 -20.16325378 38.52119446 C-25.85691103 32.19209567 -26.78493005 27.30110298 -26.65234375 18.7890625 C-25.96221955 12.43565103 -22.93391301 8.63553719 -18.3359375 4.42578125 C-12.40797993 0.31250457 -6.97770458 -0.00756402 0 0 Z " fill="#FFFFFF" transform="translate(26.2734375,105.69921875)"/>
</svg>
