<?xml version="1.0" encoding="UTF-8"?>
<svg version="1.1" xmlns="http://www.w3.org/2000/svg" width="512" height="512">
<path d="M0 0 C1.66928515 1.66404406 3.33592333 3.33074735 5 5 C6.34964844 6.29744141 6.34964844 6.29744141 7.7265625 7.62109375 C15.24576703 14.88698716 21.77026423 22.61151334 28 31 C28.43054688 31.57508301 28.86109375 32.15016602 29.3046875 32.74267578 C35.81451862 41.47916504 41.62890542 50.52374072 47 60 C47.39687012 60.69125977 47.79374023 61.38251953 48.20263672 62.09472656 C63.07902211 88.23609399 72.41827406 117.33016036 77 147 C77.17805176 148.12027588 77.35610352 149.24055176 77.53955078 150.39477539 C79.2286793 162.19225881 79.39743622 173.90848253 79.375 185.8125 C79.37478851 186.84880554 79.37457703 187.88511108 79.37435913 188.95281982 C79.34108566 205.31169687 78.4130644 220.95464179 75 237 C74.82339844 237.8957373 74.64679688 238.79147461 74.46484375 239.71435547 C65.61613817 284.29380646 43.77942881 324.10802476 14 358 C13.53126465 358.54253418 13.0625293 359.08506836 12.57958984 359.64404297 C-7.1520615 382.40722383 -33.30448657 397.69446969 -63.73822594 400.22794533 C-70.60345814 400.58283393 -77.46952129 400.54567585 -84.34179688 400.51757812 C-86.6078384 400.52301369 -88.87387639 400.5301443 -91.13990784 400.53881836 C-97.23293725 400.55688411 -103.32569243 400.55005404 -109.41872597 400.53730202 C-115.83282773 400.52708675 -122.24690794 400.53659114 -128.66101074 400.54284668 C-140.11402095 400.55056131 -151.56689248 400.53822776 -163.01988095 400.51780933 C-173.36048293 400.49994343 -183.70090516 400.50304912 -194.04150391 400.52148438 C-206.110028 400.54299075 -218.17841139 400.55080552 -230.24695826 400.53903532 C-236.61336733 400.53283908 -242.9796532 400.53185712 -249.34605408 400.54518127 C-255.3348856 400.55684254 -261.32338188 400.54852854 -267.31217766 400.52560425 C-269.493641 400.52037156 -271.67513317 400.52173591 -273.85658455 400.53065491 C-308.53104582 400.65921714 -335.91416917 390.57522357 -360.76611328 366.27294922 C-409.22733416 317.59771246 -433.62704548 251.42789953 -433.493927 183.39633179 C-433.38219351 166.99226634 -432.39840706 151.09360585 -429 135 C-428.68651611 133.47922852 -428.68651611 133.47922852 -428.36669922 131.92773438 C-419.55870875 90.4675006 -400.49996218 52.18185538 -373 20 C-372.04480469 18.87658203 -372.04480469 18.87658203 -371.0703125 17.73046875 C-359.25297532 4.23479379 -346.51448412 -8.43558025 -332 -19 C-330.85005169 -19.85649066 -329.70031411 -20.71326433 -328.55078125 -21.5703125 C-320.35910474 -27.6109414 -311.84354922 -32.97005071 -303 -38 C-302.36819824 -38.36448242 -301.73639648 -38.72896484 -301.08544922 -39.10449219 C-274.90111645 -54.09153388 -245.70576279 -63.27450825 -216 -68 C-215.31599121 -68.11182617 -214.63198242 -68.22365234 -213.92724609 -68.33886719 C-136.70870615 -80.61791267 -56.1253604 -53.69967419 0 0 Z M-247 -15 C-248.20527344 -14.60683594 -249.41054687 -14.21367188 -250.65234375 -13.80859375 C-270.24967843 -7.17906911 -288.6997291 3.34445315 -305 16 C-306.00933594 16.77988281 -307.01867187 17.55976562 -308.05859375 18.36328125 C-315.00254852 23.90859548 -321.5317338 29.91331497 -328 36 C-328.65871094 36.61617187 -329.31742188 37.23234375 -329.99609375 37.8671875 C-335.14579166 42.83848941 -339.59420352 48.36958916 -344 54 C-344.42829102 54.5465625 -344.85658203 55.093125 -345.29785156 55.65625 C-369.52449077 86.84782645 -383.96492783 123.95230949 -389 163 C-389.13277344 164.00675781 -389.26554687 165.01351562 -389.40234375 166.05078125 C-395.12649185 220.23415572 -378.03494644 275.03996889 -344.6875 317.6875 C-343.47339935 319.13774707 -342.24453616 320.57578559 -341 322 C-340.32066406 322.78761719 -339.64132812 323.57523437 -338.94140625 324.38671875 C-336.66953523 326.96636553 -334.34553626 329.48719095 -332 332 C-331.55672363 332.48791016 -331.11344727 332.97582031 -330.65673828 333.47851562 C-317.32875827 348.08223337 -301.98265002 355.8377924 -282 357 C-275.23433584 357.18970257 -268.46371815 357.14724464 -261.69604492 357.14526367 C-259.64819783 357.1482598 -257.60035129 357.15166337 -255.55250549 357.15544128 C-250.01520034 357.16423857 -244.47791067 357.16661757 -238.9405992 357.16725707 C-235.47482059 357.16796991 -232.00904585 357.17010864 -228.5432682 357.17275429 C-216.43468605 357.18199303 -204.32611486 357.18609095 -192.2175293 357.18530273 C-180.95849235 357.18470209 -169.69950333 357.1952551 -158.4404785 357.2110464 C-148.74924533 357.22415094 -139.05802778 357.22948542 -129.36678582 357.22884732 C-123.58955561 357.22859323 -117.81236804 357.23139558 -112.03514671 357.24202538 C-106.59893231 357.25175571 -101.16280093 357.25175189 -95.72658348 357.24450874 C-93.74094521 357.24346907 -91.75530163 357.24578874 -89.76967239 357.2518692 C-64.60923595 357.32387652 -44.74239581 354.03845607 -26 336 C-25.18660156 335.23816406 -24.37320312 334.47632813 -23.53515625 333.69140625 C9.81729284 301.603505 29.32403582 255.40771348 35 210 C35.11214844 209.1234375 35.22429687 208.246875 35.33984375 207.34375 C41.11929141 152.24107093 23.81308397 96.01694117 -10.6875 52.9375 C-12.10657692 51.27575565 -13.54471317 49.63012694 -15 48 C-15.4340918 47.51241211 -15.86818359 47.02482422 -16.31542969 46.52246094 C-19.49340421 42.96642086 -22.72911685 39.47074338 -26 36 C-27.03447266 34.90171875 -27.03447266 34.90171875 -28.08984375 33.78125 C-33.339661 28.37039541 -39.05994032 23.63339674 -45 19 C-45.5451123 18.57315918 -46.09022461 18.14631836 -46.65185547 17.70654297 C-56.85546601 9.78070519 -67.62549529 3.11529926 -79 -3 C-80.02335449 -3.55083252 -80.02335449 -3.55083252 -81.06738281 -4.11279297 C-131.49530038 -30.70046917 -193.56106735 -33.6441239 -247 -15 Z " fill="#488ABD" transform="translate(433,91)"/>
<path d="M0 0 C4.43223375 4.20211778 7.4700957 8.36876105 8.37109375 14.54296875 C8.55104365 21.70920869 7.23914481 27.13285444 3 33 C-2.67817647 38.4048288 -7.86814949 39.12905607 -15.41015625 38.9921875 C-17.14126974 38.97462748 -18.87238998 38.95772359 -20.60351562 38.94140625 C-23.30822016 38.91086105 -26.01257439 38.87587242 -28.71704102 38.82861328 C-44.81610323 38.56246365 -60.25411926 39.77532241 -75.5625 45.125 C-76.43253662 45.4235791 -77.30257324 45.7221582 -78.19897461 46.02978516 C-109.22857779 57.09864278 -134.58631 80.39169935 -148.9375 109.91015625 C-152.09790175 116.68364107 -154.66419703 123.59275905 -156.8125 130.75 C-157.0074707 131.3982373 -157.20244141 132.04647461 -157.40332031 132.71435547 C-160.39326317 143.28462081 -161.36539581 153.72899989 -161.3125 164.6875 C-161.30686035 165.91774902 -161.3012207 167.14799805 -161.29541016 168.41552734 C-160.86690422 200.68075156 -147.8939206 228.85158313 -126.734375 252.87109375 C-119.89322716 260.66292524 -117.45645088 264.94164672 -117.62109375 275.51171875 C-118.31121795 281.86513022 -121.33952449 285.66524406 -125.9375 289.875 C-131.34563664 293.62758461 -136.4577252 294.76532271 -143 294 C-159.08423199 290.55784918 -171.03325879 271.32125902 -179.49755859 258.38916016 C-203.20345563 220.69239246 -212.52027256 173.76295053 -203 130 C-195.59517255 98.58506231 -181.42787959 70.3455506 -159 47 C-158.5354541 46.50435547 -158.0709082 46.00871094 -157.59228516 45.49804688 C-128.68496405 14.73086256 -40.80716003 -32.80774156 0 0 Z " fill="#488ABE" transform="translate(291,112)"/>
<path d="M0 0 C5.52053356 3.25974363 9.49911937 7.49527543 11.80078125 13.5234375 C13.32305856 21.41160176 12.17675209 27.03688666 8.48828125 34.0859375 C6.09481801 37.16910921 3.36177809 39.77729314 0.50683594 42.43115234 C-0.29354095 43.20027954 -1.09391785 43.96940674 -1.91854858 44.76184082 C-3.64641918 46.42035741 -5.38069721 48.0722196 -7.12070465 49.7179985 C-9.87936433 52.33435697 -12.61191179 54.97545968 -15.33807373 57.62564087 C-23.08629109 65.1548816 -30.85374549 72.66229824 -38.69726562 80.09228516 C-43.50650408 84.64853242 -48.26085435 89.25782651 -52.98854828 93.8988533 C-54.79001888 95.64860247 -56.60968715 97.37983007 -58.44791412 99.09092331 C-69.33637689 108.60260811 -69.33637689 108.60260811 -74.54675293 121.51519775 C-74.68111525 125.74322747 -74.24732516 129.80329873 -73.66876984 133.98477554 C-73.04903966 142.27604879 -78.3716762 150.94994016 -83.51171875 157.0859375 C-92.8857835 167.0177681 -103.70132706 171.90926802 -117.26171875 172.4609375 C-130.14028587 172.19844441 -140.35412874 166.95967973 -149.69921875 158.4609375 C-157.7237703 150.05197629 -161.44066394 139.37904936 -161.5390625 127.89453125 C-161.02276405 116.68158803 -157.94064924 107.54016833 -150.51171875 99.0859375 C-150.01027344 98.48007813 -149.50882813 97.87421875 -148.9921875 97.25 C-142.33210316 89.82830017 -132.41349916 85.11666891 -122.51171875 84.0859375 C-112.8697548 83.58628391 -112.8697548 83.58628391 -108.8572998 85.06256104 C-104.94659554 85.08988617 -104.48271698 84.6016815 -101.67956543 82.07537842 C-100.20387194 80.6108637 -98.74757961 79.1266523 -97.30664062 77.62792969 C-96.50585587 76.82334824 -95.70507111 76.01876678 -94.88002014 75.18980408 C-92.23034094 72.51991611 -89.60598246 69.82644964 -86.98046875 67.1328125 C-85.14428769 65.27595721 -83.30633107 63.42085618 -81.4666748 61.56744385 C-77.11494111 57.17845752 -72.7800805 52.77322663 -68.45210028 48.36082673 C-60.24960831 39.99896864 -52.01884419 31.66511138 -43.77845764 23.34061432 C-41.0754247 20.60318149 -38.38330305 17.85535492 -35.69226074 15.10614014 C-34.03409211 13.42428635 -32.3756203 11.7427314 -30.71679688 10.06152344 C-29.59912682 8.91117867 -29.59912682 8.91117867 -28.45887756 7.7375946 C-20.48856248 -0.30114804 -11.33149922 -4.12374933 0 0 Z " fill="#488ABD" transform="translate(372.51171875,149.9140625)"/>
<path d="M0 0 C5.74650612 4.24092152 8.63927275 9.02888961 10 16 C11.13762946 23.92334884 11.24290223 31.81727798 11.25 39.8125 C11.25067474 40.49807983 11.25134949 41.18365967 11.25204468 41.89001465 C11.23399738 53.48144107 10.46925369 64.65261271 8 76 C7.75056641 77.17296631 7.75056641 77.17296631 7.49609375 78.36962891 C0.83148593 108.69976542 -14.58278736 134.9635777 -35 158 C-35.95712891 159.10214844 -35.95712891 159.10214844 -36.93359375 160.2265625 C-42.0130842 165.74009717 -47.90679353 169.08991394 -55.5 169.5 C-61.32535069 169.18484141 -66.51033574 167.29283183 -70.828125 163.31640625 C-76.51789644 156.89469819 -77.53699475 152.0754953 -77.359375 143.4609375 C-76.50996188 135.2807198 -70.76556585 130.63387257 -65.36865234 124.90478516 C-53.59010491 112.17451536 -45.28793604 96.32162476 -39.6875 80 C-39.45708008 79.33766357 -39.22666016 78.67532715 -38.98925781 77.99291992 C-33.93584294 62.37445449 -33.69703521 47.53676733 -34.13696289 31.31713867 C-34.203686 28.63984419 -34.24534912 25.96296621 -34.28515625 23.28515625 C-34.31521255 22.48497574 -34.34526886 21.68479523 -34.37623596 20.86036682 C-34.4720993 13.48208037 -32.38331682 7.4916494 -27.25 2.125 C-18.5520162 -3.56214325 -9.38862446 -5.27640695 0 0 Z " fill="#488ABE" transform="translate(416,237)"/>
</svg>
