<?xml version="1.0" encoding="UTF-8"?>
<svg version="1.1" xmlns="http://www.w3.org/2000/svg" width="512" height="512">
<path d="M0 0 C5.37442292 4.16262039 10.23052373 8.89993507 15.12890625 13.60400391 C16.97142677 15.35474914 18.86644365 17.03379194 20.79296875 18.69140625 C24.14590771 21.58385574 27.41110677 24.56679718 30.66796875 27.56640625 C33.96821705 30.6053296 37.27746285 33.62796781 40.66796875 36.56640625 C44.59886125 39.97317975 48.41993448 43.4964341 52.24609375 47.01953125 C55.02290932 49.57195768 57.81777592 52.09623913 60.66796875 54.56640625 C64.59886125 57.97317975 68.41993448 61.4964341 72.24609375 65.01953125 C75.02290932 67.57195768 77.81777592 70.09623913 80.66796875 72.56640625 C84.59886125 75.97317975 88.41993448 79.4964341 92.24609375 83.01953125 C95.02290932 85.57195768 97.81777592 88.09623913 100.66796875 90.56640625 C104.59886125 93.97317975 108.41993448 97.4964341 112.24609375 101.01953125 C115.02290932 103.57195768 117.81777592 106.09623913 120.66796875 108.56640625 C124.05847655 111.50484635 127.36765905 114.52754767 130.66796875 117.56640625 C134.60081716 121.18730759 138.57010887 124.7559955 142.609375 128.2578125 C146.12239177 131.34420105 149.56096693 134.51269403 153.015625 137.6640625 C155.19257871 139.63582469 157.38635549 141.58005962 159.60546875 143.50390625 C163.55464242 146.93409201 167.3981918 150.47644143 171.24584961 154.01928711 C174.02273245 156.57181078 176.8176889 159.09616371 179.66796875 161.56640625 C183.59886125 164.97317975 187.41993448 168.4964341 191.24609375 172.01953125 C194.02290932 174.57195768 196.81777592 177.09623913 199.66796875 179.56640625 C203.05847846 182.504848 206.3675976 185.5276125 209.66796875 188.56640625 C213.05521318 191.6838515 216.45160901 194.78675325 219.91796875 197.81640625 C220.49157865 198.32453218 221.06518854 198.83265811 221.65618056 199.3561818 C223.63802243 201.08570077 223.63802243 201.08570077 225.74964839 202.57463723 C231.21369636 206.72820817 231.21369636 206.72820817 232.4041971 210.2351917 C232.68349173 212.77094853 232.71139592 215.19846269 232.65019226 217.74894714 C232.65914436 218.70609613 232.66809645 219.66324512 232.67731982 220.64939862 C232.69748044 223.84838626 232.66058859 227.04411878 232.6237793 230.24291992 C232.6264348 232.53973014 232.63257016 234.83653858 232.641922 237.1333313 C232.65703356 243.36744271 232.62231729 249.60038664 232.57791495 255.83432174 C232.5390244 262.36432003 232.54316739 268.89429871 232.54194641 275.4243927 C232.53502106 286.39583626 232.49525505 297.36685623 232.4362793 308.33813477 C232.37574865 319.60641156 232.34026552 330.87438216 232.33374023 342.14282227 C232.33333466 342.83614232 232.33292908 343.52946238 232.33251121 344.24379214 C232.33211291 344.93595375 232.33171462 345.62811535 232.33130425 346.34125155 C232.33049834 347.7351441 232.3296837 349.12903665 232.32886028 350.52292919 C232.32845878 351.21048153 232.32805728 351.89803387 232.32764361 352.60642112 C232.31991166 364.01948626 232.2863839 375.43249046 232.25251031 386.84550309 C232.24220658 390.72718841 232.23563068 394.60886633 232.22968102 398.49056053 C232.21883959 404.60477316 232.19221671 410.71873 232.15363884 416.83282852 C232.14173321 419.07083983 232.13477315 421.30888404 232.13325119 423.5469265 C232.11026841 446.79223153 227.81194887 464.09485282 211.46484375 481.3984375 C206.79490267 485.93693984 201.86337622 489.35726094 196.16796875 492.44140625 C195.57556396 492.76318848 194.98315918 493.0849707 194.37280273 493.41650391 C186.04557936 497.6914542 177.95555481 499.52247374 168.62841797 499.40698242 C167.20708305 499.40763954 167.20708305 499.40763954 165.7570343 499.40830994 C162.66202321 499.40623973 159.56757131 499.38299285 156.47265625 499.359375 C154.31218766 499.35377275 152.15171523 499.34950563 149.99124146 499.34651184 C144.33265475 499.33511262 138.67430273 499.3056881 133.01580811 499.2723999 C127.23062311 499.24159249 121.44539981 499.22798377 115.66015625 499.21289062 C104.32932454 499.18081345 92.99866624 499.12967711 81.66796875 499.06640625 C81.6655804 498.25140404 81.66319204 497.43640182 81.66073132 496.59670258 C81.60142233 476.70439211 81.52577152 456.8122012 81.43225384 436.92002106 C81.38741629 427.30004476 81.34797431 417.6801045 81.3215332 408.06005859 C81.29845512 399.66867948 81.26494889 391.27741554 81.21926719 382.88612795 C81.19546639 378.44894524 81.176652 374.01187567 81.17035484 369.57463074 C81.16424386 365.3852088 81.14403148 361.19607583 81.11369324 357.00676155 C81.10500817 355.48157329 81.10117024 353.95634711 81.10296059 352.43113518 C81.12402312 326.17261615 73.15573973 301.00315502 55.66796875 281.06640625 C55.06597656 280.32132812 54.46398437 279.57625 53.84375 278.80859375 C38.39088189 260.2133185 13.56575538 247.75959476 -10.33203125 245.06640625 C-11.43160156 244.93363281 -12.53117187 244.80085937 -13.6640625 244.6640625 C-43.38063446 241.84747581 -71.11367077 251.49579688 -93.95703125 270.31640625 C-113.85435916 287.29596974 -126.15717991 312.23098207 -129.33203125 338.06640625 C-129.62123823 343.4475841 -129.64356153 348.82102524 -129.65087891 354.20800781 C-129.66019769 355.79596964 -129.6703692 357.38392665 -129.68132019 358.97187805 C-129.70841464 363.24581439 -129.72370797 367.51971817 -129.73674822 371.79371738 C-129.75246959 376.27403524 -129.77923068 380.75428745 -129.80477905 385.23455811 C-129.8514084 393.70209137 -129.88822876 402.16963721 -129.92145193 410.63723254 C-129.95978584 420.28428462 -130.00916617 429.93127051 -130.05943608 439.57826662 C-130.16252004 459.4075975 -130.25185636 479.23697037 -130.33203125 499.06640625 C-142.77194742 499.15937202 -155.21177999 499.23030584 -167.65197372 499.27365494 C-173.42940351 499.29446766 -179.20659439 499.32266954 -184.98388672 499.36816406 C-190.5665647 499.41184746 -196.14901387 499.43559078 -201.73184967 499.44591522 C-203.85435839 499.45326635 -205.97685559 499.46762072 -208.09926605 499.48932648 C-229.30778044 499.69746141 -229.30778044 499.69746141 -239.33203125 495.06640625 C-241.1109375 494.30650391 -241.1109375 494.30650391 -242.92578125 493.53125 C-259.84283947 484.64069924 -272.45926578 470.46302097 -278.33203125 452.06640625 C-280.05957161 445.70798254 -280.63729956 439.71575231 -280.66001892 433.14335632 C-280.67090013 432.18449848 -280.68178133 431.22564065 -280.69299227 430.23772651 C-280.72654665 427.04611032 -280.74610755 423.85457382 -280.76538086 420.6628418 C-280.78611339 418.36573699 -280.80751855 416.06863818 -280.82954407 413.77154541 C-280.89724267 406.24881821 -280.94292876 398.72603718 -280.984375 391.203125 C-280.99161819 389.92125817 -280.99886137 388.63939133 -281.00632405 387.31868005 C-281.07348614 375.22196054 -281.13191734 363.12523134 -281.16985226 351.02838421 C-281.17876945 348.23352195 -281.18781705 345.43866016 -281.19702148 342.64379883 C-281.19930052 341.9492416 -281.20157955 341.25468436 -281.20392764 340.53907994 C-281.24230208 329.28579537 -281.33243628 318.03352873 -281.44328862 306.78074934 C-281.556381 295.20454726 -281.61896808 283.6289247 -281.63652235 272.05217963 C-281.64772348 265.56103234 -281.6808014 259.07173445 -281.76765251 252.58112144 C-281.84833476 246.47440081 -281.86704155 240.37055641 -281.83901787 234.26339722 C-281.83939968 232.02846759 -281.86187417 229.79341026 -281.90861893 227.5589695 C-282.25969818 209.82957325 -282.25969818 209.82957325 -277.47955513 204.12137794 C-274.36971576 201.00129299 -270.96669781 198.54270366 -267.33203125 196.06640625 C-265.95944335 194.90024757 -264.5991515 193.71882749 -263.26953125 192.50390625 C-262.65980469 191.97667969 -262.05007813 191.44945312 -261.421875 190.90625 C-258.68832566 188.49970469 -256.01089119 186.03337429 -253.33203125 183.56640625 C-249.42223944 179.96625302 -245.47336589 176.42222961 -241.45703125 172.94140625 C-238.71379707 170.5209055 -236.02318557 168.04439983 -233.33203125 165.56640625 C-229.4222153 161.96627869 -225.47336657 158.4222302 -221.45703125 154.94140625 C-218.71379707 152.5209055 -216.02318557 150.04439983 -213.33203125 147.56640625 C-209.4222153 143.96627869 -205.47336657 140.4222302 -201.45703125 136.94140625 C-198.71379707 134.5209055 -196.02318557 132.04439983 -193.33203125 129.56640625 C-189.4222153 125.96627869 -185.47336657 122.4222302 -181.45703125 118.94140625 C-178.71379707 116.5209055 -176.02318557 114.04439983 -173.33203125 111.56640625 C-169.4222153 107.96627869 -165.47336657 104.4222302 -161.45703125 100.94140625 C-158.71379707 98.5209055 -156.02318557 96.04439983 -153.33203125 93.56640625 C-149.4222153 89.96627869 -145.47336657 86.4222302 -141.45703125 82.94140625 C-138.71379707 80.5209055 -136.02318557 78.04439983 -133.33203125 75.56640625 C-129.4222153 71.96627869 -125.47336657 68.4222302 -121.45703125 64.94140625 C-118.71379707 62.5209055 -116.02318557 60.04439983 -113.33203125 57.56640625 C-109.4222153 53.96627869 -105.47336657 50.4222302 -101.45703125 46.94140625 C-98.71379707 44.5209055 -96.02318557 42.04439983 -93.33203125 39.56640625 C-89.4222153 35.96627869 -85.47336657 32.4222302 -81.45703125 28.94140625 C-78.71379218 26.52090119 -76.02339541 24.04417669 -73.33203125 21.56640625 C-68.72331005 17.32914912 -64.0829887 13.14365519 -59.33203125 9.06640625 C-58.39488281 8.23882812 -57.45773438 7.41125 -56.4921875 6.55859375 C-40.44976145 -7.43058587 -18.98601385 -12.35794376 0 0 Z " fill="#001941" transform="translate(280.33203125,12.93359375)"/>
<path d="M0 0 C3.57116548 2.79264136 6.81588701 5.77643783 10 9 C10.63550781 9.61359375 11.27101563 10.2271875 11.92578125 10.859375 C24.45393186 23.85976188 27.47135822 40.68762685 27.34057617 58.02807617 C27.3397283 59.61588525 27.34020816 61.20369551 27.34190369 62.79150391 C27.34275883 67.06974676 27.32521164 71.34773348 27.30418181 75.6259172 C27.28533422 80.1088591 27.28365824 84.59180791 27.28010559 89.07478333 C27.27080875 97.54951414 27.24622717 106.02412784 27.21605712 114.49880725 C27.17614428 125.96081641 27.16003914 137.42285796 27.14255047 148.88491917 C27.11440419 166.92336704 27.05461901 184.96156786 27 203 C-15.24 203 -57.48 203 -101 203 C-101.16121214 163.18955842 -101.16121214 163.18955842 -101.1953125 146.453125 C-101.21900813 134.91626844 -101.24680069 123.37952911 -101.30175781 111.84277344 C-101.34177108 103.43902957 -101.36746716 95.0353812 -101.37635398 86.63154471 C-101.38154432 82.1864976 -101.39364348 77.74172352 -101.42292023 73.29676437 C-101.45031903 69.10245579 -101.45839629 64.90852952 -101.45243073 60.71413994 C-101.45352014 59.18484473 -101.46132719 57.65553508 -101.4768219 56.12631798 C-101.66139742 36.94945143 -96.29046729 21.55694667 -82.78515625 7.7265625 C-60.51678967 -14.07332512 -25.93119092 -17.54067242 0 0 Z " fill="#001941" transform="translate(293,309)"/>
</svg>
