<?xml version="1.0" encoding="UTF-8"?>
<svg version="1.1" xmlns="http://www.w3.org/2000/svg" width="512" height="512">
<path d="M0 0 C0.84836426 0.28327148 1.69672852 0.56654297 2.57080078 0.85839844 C27.83030261 9.47987653 50.82770923 22.5383608 71 40 C71.804375 40.69351563 72.60875 41.38703125 73.4375 42.1015625 C85.17312186 52.44545997 95.74191332 63.38348234 105 76 C105.60303955 76.81984375 105.60303955 76.81984375 106.21826172 77.65625 C112.11381901 85.74714264 117.24587963 94.20274436 122 103 C122.48484863 103.87785156 122.48484863 103.87785156 122.97949219 104.7734375 C147.11103771 148.76248366 153.80004668 202.13887283 140.02758789 250.30737305 C128.31294211 289.45636836 108.94583417 326.08843419 88 361 C87.38672852 362.02432129 86.77345703 363.04864258 86.14160156 364.10400391 C75.31683404 382.11441933 63.77604006 399.60369769 52 417 C51.4234668 417.85368164 50.84693359 418.70736328 50.25292969 419.58691406 C43.06067638 430.2195471 35.5798487 440.64087345 28 451 C27.55849609 451.60424805 27.11699219 452.20849609 26.66210938 452.83105469 C18.95155277 463.35262523 11.37811974 472.02127842 1 480 C0.21882813 480.6084375 -0.56234375 481.216875 -1.3671875 481.84375 C-26.07301344 500.14436181 -57.6804977 505.38099599 -87.77734375 501.50390625 C-91.26698503 500.84471041 -94.59930584 500.01896561 -98 499 C-99.17175781 498.68289063 -100.34351563 498.36578125 -101.55078125 498.0390625 C-116.95625601 493.45158216 -131.10559041 485.80163698 -143 475 C-144.20766556 474.0408253 -145.41593224 473.08240659 -146.625 472.125 C-156.11215095 463.84611828 -163.13785215 452.45837287 -170.38867188 442.26269531 C-171.85111589 440.20906938 -173.32243583 438.16220721 -174.796875 436.1171875 C-189.26292536 415.95161099 -203.02223474 395.15204184 -216 374 C-216.71712158 372.83162598 -216.71712158 372.83162598 -217.44873047 371.63964844 C-258.76585774 304.0594475 -295.9865839 233.34005536 -277.25244141 152.37182617 C-272.95345777 135.13410887 -266.48233969 118.59014245 -258 103 C-257.48824219 102.01257813 -256.97648437 101.02515625 -256.44921875 100.0078125 C-247.67823388 83.31693563 -236.00270315 68.55885326 -223 55 C-222.49597656 54.46874512 -221.99195313 53.93749023 -221.47265625 53.39013672 C-197.94233623 28.69356954 -168.26106638 10.83841116 -136 0 C-135.16033691 -0.28214355 -134.32067383 -0.56428711 -133.45556641 -0.85498047 C-90.81690765 -14.82097235 -42.46470003 -14.24485027 0 0 Z M-182.48925781 82.54492188 C-184.03526557 84.03396619 -185.60606738 85.49334123 -187.1796875 86.953125 C-210.41305158 108.89050681 -224.81719375 138.13898941 -232 169 C-232.16371094 169.67579102 -232.32742187 170.35158203 -232.49609375 171.04785156 C-237.61948916 192.97047946 -236.85324651 216.61441182 -230 238 C-229.75362793 238.79954102 -229.50725586 239.59908203 -229.25341797 240.42285156 C-212.72127362 293.44083092 -181.14006901 341.53219958 -150.23944092 387.16815186 C-148.39650121 389.89194905 -146.56032362 392.62030018 -144.72265625 395.34765625 C-120.22118008 433.54248743 -120.22118008 433.54248743 -81.25 454.3125 C-61.84424918 457.505459 -44.54441692 453.15483947 -28.32421875 442.19140625 C-16.8444634 433.60390653 -9.16896065 421.5751067 -1.2734375 409.8359375 C1.20164868 406.15887398 3.73670914 402.53365907 6.32006836 398.93212891 C41.55428858 349.78348981 75.17715135 295.79755028 94 238 C94.4343335 236.67645508 94.4343335 236.67645508 94.87744141 235.32617188 C105.48233406 201.72779638 98.56626217 162.50294624 83.0625 131.4375 C81.75420318 128.93134493 80.38939698 126.46194848 79 124 C78.65356445 123.37335449 78.30712891 122.74670898 77.95019531 122.10107422 C65.25602439 99.29686141 46.95664819 79.19149213 25 65 C24.39768555 64.6066748 23.79537109 64.21334961 23.17480469 63.80810547 C-40.68466163 22.58602299 -127.47376529 29.23393044 -182.48925781 82.54492188 Z " fill="#488ABE" transform="translate(324,10)"/>
<path d="M0 0 C1.05960937 0.36222656 2.11921875 0.72445312 3.2109375 1.09765625 C23.33696442 8.72899037 39.943231 24.67481469 49.02954102 44.07543945 C58.65628048 65.80614067 59.8968414 89.43542426 51.6875 111.8125 C42.65671702 133.62116695 27.17465906 151.05158976 5.43798828 160.60375977 C-17.37763803 169.98602526 -41.52141037 169.30871133 -64.25 160.3125 C-85.95359444 150.34124861 -101.38959827 133.14814318 -110 111 C-117.48983908 88.08922094 -116.89426076 63.91843567 -106.0703125 42.12841797 C-94.70325912 20.54533551 -77.08096763 6.99704689 -54.41015625 -1.31640625 C-37.08386945 -6.53429115 -17.03925042 -5.97353032 0 0 Z M-55 48 C-55.886875 48.5775 -56.77375 49.155 -57.6875 49.75 C-66.54577186 58.36885911 -71.11671303 68.801434 -71.4375 81.125 C-71.0320837 93.02593015 -66.86844267 103.11736184 -58.625 111.8125 C-55.06501255 115.13047076 -51.3213202 117.76568103 -47 120 C-46.38125 120.32097656 -45.7625 120.64195312 -45.125 120.97265625 C-35.98977757 124.80873598 -23.2484519 124.48424308 -13.9375 121.4375 C-2.2060421 116.31733844 6.00335506 107.17113131 11.0546875 95.61328125 C14.6170478 85.76526868 14.08473597 74.59065377 10.3828125 64.8828125 C4.54537217 52.71323351 -4.20024227 45.46932939 -16.67578125 40.7265625 C-30.61474028 36.36917363 -43.22087211 39.99705883 -55 48 Z " fill="#488ABE" transform="translate(285,132)"/>
</svg>
