<?xml version="1.0" encoding="UTF-8"?>
<svg version="1.1" xmlns="http://www.w3.org/2000/svg" width="512" height="512">
<path d="M0 0 C1.22026382 -0.00786278 1.22026382 -0.00786278 2.46517944 -0.0158844 C4.19161851 -0.02229967 5.91810131 -0.02097397 7.64453125 -0.01245117 C10.21700147 -0.00408969 12.7871327 -0.0324613 15.359375 -0.06445312 C47.29449625 -0.19921748 77.41815032 11.77946341 101.6484375 32.43359375 C102.6075 33.24570312 103.5665625 34.0578125 104.5546875 34.89453125 C124.59659871 52.30336454 137.90683782 75.92312737 144.6484375 101.43359375 C144.96941406 102.62726563 145.29039062 103.8209375 145.62109375 105.05078125 C147.59865165 113.75203602 147.98120353 122.28362821 148.0859375 131.18359375 C148.10825439 132.30805908 148.13057129 133.43252441 148.15356445 134.59106445 C148.11570135 148.53594395 143.32990909 159.40714464 134.0234375 169.62109375 C123.83535936 179.28819062 111.98734924 180.74853259 98.6171875 181.84765625 C82.71626383 183.18263808 64.5216163 185.03254765 51.6484375 195.43359375 C52.46634766 196.43326172 52.46634766 196.43326172 53.30078125 197.453125 C58.75 204.11328125 64.19921875 210.7734375 69.6484375 217.43359375 C70.48246094 217.09585938 71.31648438 216.758125 72.17578125 216.41015625 C73.30113281 215.96414062 74.42648437 215.518125 75.5859375 215.05859375 C76.68808594 214.61773437 77.79023438 214.176875 78.92578125 213.72265625 C98.66577369 206.88719192 120.18000473 209.17632553 138.8359375 217.99609375 C146.65707285 221.94527734 152.60105257 227.16893751 158.6484375 233.43359375 C159.38578125 234.14 160.123125 234.84640625 160.8828125 235.57421875 C173.82564323 248.71771352 178.97060117 267.4721246 179.1484375 285.43359375 C178.95122279 305.35227936 172.6267422 323.6493617 158.3515625 337.82421875 C157.45953125 338.6853125 156.5675 339.54640625 155.6484375 340.43359375 C154.94203125 341.1709375 154.235625 341.90828125 153.5078125 342.66796875 C140.36431773 355.61079948 121.60990665 360.75575742 103.6484375 360.93359375 C83.72975189 360.73637904 65.43266955 354.41189845 51.2578125 340.13671875 C50.39671875 339.2446875 49.535625 338.35265625 48.6484375 337.43359375 C47.91109375 336.7271875 47.17375 336.02078125 46.4140625 335.29296875 C33.59638941 322.27657205 28.3165827 303.78401637 28.1484375 285.99609375 C28.32598163 267.20277039 34.16519515 252.80745585 44.6484375 237.43359375 C35.2040863 226.38543422 35.2040863 226.38543422 25.6484375 215.43359375 C8.30947034 235.8622173 -0.00695827 258.19631785 -1.49316406 284.7097168 C-1.86977212 289.9892238 -2.7772827 293.28842204 -6.3515625 297.43359375 C-10.17912679 300.21911386 -12.8327247 300.80640034 -17.53352356 300.7943573 C-19.39915451 300.80054329 -19.39915451 300.80054329 -21.30247498 300.80685425 C-22.6727622 300.79623826 -24.04304721 300.78533385 -25.41333008 300.77416992 C-26.86232485 300.77332332 -28.31132091 300.77379944 -29.76031494 300.77549744 C-33.68769265 300.77635753 -37.61479501 300.75872958 -41.54210877 300.73777556 C-45.6487197 300.71901111 -49.75533707 300.71725851 -53.86198425 300.71369934 C-61.63568338 300.70437819 -69.40925582 300.67976348 -77.18289918 300.64965087 C-86.03409849 300.61610903 -94.88530387 300.5996214 -103.73655093 300.58456457 C-121.94162659 300.55321397 -140.14658436 300.50045212 -158.3515625 300.43359375 C-158.54637207 301.03991135 -158.74118164 301.64622894 -158.94189453 302.2709198 C-159.20341309 303.07250015 -159.46493164 303.87408051 -159.734375 304.69995117 C-160.11940186 305.88786507 -160.11940186 305.88786507 -160.51220703 307.09977722 C-161.75441568 310.55372156 -163.44552795 313.6199083 -165.3515625 316.74609375 C-165.73892578 317.38490479 -166.12628906 318.02371582 -166.52539062 318.68188477 C-170.71214587 325.34934226 -175.76887208 330.91610263 -181.3515625 336.43359375 C-182.44404297 337.54154297 -182.44404297 337.54154297 -183.55859375 338.671875 C-200.8979043 355.23911977 -223.79785971 361.00260001 -247.10107422 360.92114258 C-267.91284706 360.4420661 -286.74678343 353.28566213 -302.3515625 339.43359375 C-303.35703125 338.64082031 -303.35703125 338.64082031 -304.3828125 337.83203125 C-320.20910666 325.08307207 -330.66208394 304.40280098 -333.3515625 284.43359375 C-335.47875997 259.77576838 -331.9016632 235.81242836 -316.2890625 215.93359375 C-314.98656041 214.42490407 -313.67473489 212.92418795 -312.3515625 211.43359375 C-311.55878906 210.428125 -311.55878906 210.428125 -310.75 209.40234375 C-298.00104082 193.57604959 -277.32076973 183.12307231 -257.3515625 180.43359375 C-232.69373713 178.30639628 -208.73039711 181.88349305 -188.8515625 197.49609375 C-187.34287282 198.79859584 -185.8421567 200.11042136 -184.3515625 201.43359375 C-183.68125 201.96210938 -183.0109375 202.490625 -182.3203125 203.03515625 C-168.5846145 214.10002409 -160.00277162 230.31153378 -155.3515625 247.05859375 C-155.03964966 248.14841553 -155.03964966 248.14841553 -154.72143555 249.26025391 C-152.85792856 256.65714412 -153.3515625 262.2814408 -153.3515625 270.43359375 C-143.4515625 270.43359375 -133.5515625 270.43359375 -123.3515625 270.43359375 C-124.94768122 248.8134402 -128.20488989 225.07695399 -142.00024414 207.31030273 C-143.3515625 205.43359375 -143.3515625 205.43359375 -143.27734375 203.08984375 C-142.11217541 199.7467447 -140.46059415 196.88302708 -138.5390625 193.93359375 C-138.14307861 193.32555908 -137.74709473 192.71752441 -137.33911133 192.09106445 C-121.97249783 169.2259457 -100.30949575 157.26646039 -74.23046875 150.640625 C-73.36292969 150.40730469 -72.49539063 150.17398438 -71.6015625 149.93359375 C-70.88484375 149.75828125 -70.168125 149.58296875 -69.4296875 149.40234375 C-63.15218278 146.47598817 -59.48949153 139.50643477 -55.80078125 133.9609375 C-55.18314407 133.04204239 -54.5655069 132.12314728 -53.92915344 131.17640686 C-51.96049229 128.24481515 -49.99969341 125.30806048 -48.0390625 122.37109375 C-46.73293459 120.42348419 -45.42629877 118.47621514 -44.11914062 116.52929688 C-37.42779108 106.55607514 -37.42779108 106.55607514 -30.78271484 96.55200195 C-30.08484863 95.497146 -29.38698242 94.44229004 -28.66796875 93.35546875 C-28.10150635 92.49405273 -27.53504395 91.63263672 -26.95141602 90.74511719 C-15.67492356 74.45245267 1.42370177 64.97317789 20.51879883 60.74584961 C22.6484375 60.43359375 22.6484375 60.43359375 27.6484375 60.43359375 C27.6484375 51.19359375 27.6484375 41.95359375 27.6484375 32.43359375 C25.11929687 32.335625 22.59015625 32.23765625 19.984375 32.13671875 C17.52174229 32.02854289 15.05948267 31.91399101 12.59716797 31.79882812 C10.89237532 31.72249895 9.18727431 31.65274969 7.48193359 31.58984375 C5.02329692 31.49798575 2.56675987 31.38211342 0.109375 31.26171875 C-0.64711334 31.23861633 -1.40360168 31.21551392 -2.18301392 31.19171143 C-7.27654675 30.9106958 -10.27819359 29.73573302 -14.3515625 26.43359375 C-18.40786648 21.21099518 -18.12553794 15.78019233 -17.3515625 9.43359375 C-13.60888738 1.53239071 -8.29432823 -0.03171838 0 0 Z M-286.5390625 229.12109375 C-298.56013154 241.75926079 -303.01843748 256.13759096 -302.89282227 273.19238281 C-302.33136339 289.85042471 -295.19407052 303.61192197 -283.14453125 315.078125 C-270.69118305 325.58073893 -256.07595403 331.20728097 -239.75390625 330.21484375 C-223.51199707 328.49647289 -207.80597227 321.33618809 -197.3515625 308.43359375 C-196.4654153 307.06174708 -195.5945512 305.67995648 -194.73583984 304.29077148 C-194.2884848 303.56889145 -193.84112976 302.84701141 -193.38021851 302.10325623 C-192.87103378 301.2767733 -192.87103378 301.2767733 -192.3515625 300.43359375 C-192.89898605 300.43216873 -193.44640961 300.43074371 -194.01042175 300.42927551 C-199.77103111 300.40940247 -205.53060572 300.35475902 -211.29077148 300.28100586 C-213.43294824 300.25798209 -215.57523569 300.2434673 -217.7175293 300.23803711 C-234.08435716 300.18840595 -247.94861498 299.44742919 -260.3515625 287.43359375 C-269.93781423 277.53685613 -272.92579988 266.36174109 -272.8203125 252.96484375 C-272.17740024 248.12157142 -270.90211409 245.63317589 -267.0390625 242.64453125 C-263.93959521 241.24796895 -261.7410503 241.03265379 -258.3515625 241.05859375 C-257.3409375 241.05085938 -256.3303125 241.043125 -255.2890625 241.03515625 C-251.86688681 241.49933434 -250.07802691 242.32426825 -247.3515625 244.43359375 C-244.58453379 248.08957738 -243.78051926 251.4648471 -242.9765625 255.93359375 C-241.41557039 263.20453069 -239.45939505 265.36170538 -233.3515625 269.43359375 C-228.45292436 270.90859644 -223.30384819 270.55916344 -218.23828125 270.53125 C-216.78395439 270.52912758 -216.78395439 270.52912758 -215.30024719 270.52696228 C-212.21315383 270.52137888 -209.12613383 270.50882939 -206.0390625 270.49609375 C-203.94205834 270.49107661 -201.84505304 270.48651407 -199.74804688 270.48242188 C-194.61585729 270.47141487 -189.48372232 270.45416163 -184.3515625 270.43359375 C-184.33352658 268.84379211 -184.32070471 267.2539308 -184.31005859 265.6640625 C-184.30235443 264.77871826 -184.29465027 263.89337402 -184.28671265 262.98120117 C-184.65854864 248.37373368 -193.36823737 236.28425011 -203.3515625 226.43359375 C-228.37212985 203.87118741 -262.4396923 206.89716092 -286.5390625 229.12109375 Z M90.6484375 243.43359375 C93.1862186 248.03166404 96.37398827 251.90814455 99.7109375 255.93359375 C117.79063238 277.96026427 117.79063238 277.96026427 117.8984375 285.24609375 C117.92421875 286.28378906 117.95 287.32148438 117.9765625 288.390625 C117.59629866 291.9171194 116.8251009 293.64651822 114.6484375 296.43359375 C110.9842622 299.26837802 108.23770765 299.84371572 103.6484375 299.80859375 C102.6378125 299.81632812 101.6271875 299.8240625 100.5859375 299.83203125 C95.05670097 299.08205502 92.28389876 296.34713682 88.95678711 292.00317383 C88.52503174 291.4233374 88.09327637 290.84350098 87.6484375 290.24609375 C86.69288573 288.99496241 85.73578628 287.74501197 84.77734375 286.49609375 C84.27477051 285.83867187 83.77219727 285.18125 83.25439453 284.50390625 C79.88470359 280.15988388 76.37519812 275.92733422 72.88867188 271.67700195 C72.36466797 271.03593506 71.84066406 270.39486816 71.30078125 269.734375 C70.83663818 269.16887939 70.37249512 268.60338379 69.89428711 268.02075195 C68.73771752 266.54733261 67.68746334 264.99213252 66.6484375 263.43359375 C65.9884375 263.43359375 65.3284375 263.43359375 64.6484375 263.43359375 C58.86443932 275.12553292 57.09008051 287.91072018 61.2734375 300.49609375 C66.79507525 313.05398517 75.47353813 322.21439402 88.203125 327.55859375 C98.2823476 331.16521653 111.45525833 330.99887711 121.26953125 326.68359375 C133.45189482 320.28235181 141.95709868 311.54421028 146.6484375 298.43359375 C150.01721549 286.53545385 148.0992575 273.79279005 142.3984375 263.0859375 C136.07111784 252.60631432 126.50767364 245.24709232 114.74145508 241.8894043 C111.2669952 241.13274775 107.75033874 241.2491163 104.2109375 241.24609375 C103.46005859 241.23384766 102.70917969 241.22160156 101.93554688 241.20898438 C97.71196102 241.19784035 94.50540034 241.49361045 90.6484375 243.43359375 Z " fill="#001942" transform="translate(333.3515625,-0.43359375)"/>
<path d="M0 0 C0.68715591 -0.02131989 1.37431183 -0.04263977 2.08229065 -0.06460571 C4.35180112 -0.12868474 6.62072309 -0.16874613 8.89086914 -0.203125 C9.67523409 -0.21659973 10.45959904 -0.23007446 11.26773262 -0.24395752 C15.43625568 -0.31237542 19.60449342 -0.3603233 23.7734375 -0.39355469 C27.18000131 -0.42434393 30.58224387 -0.49329871 33.98730469 -0.59863281 C54.41297712 -1.21636664 69.90563635 -1.06709583 86.7875061 11.89831543 C90.03259635 14.32888231 93.4928316 16.30304597 97.01196289 18.3046875 C98.23465137 19.0272837 99.45578308 19.75252094 100.67529297 20.48046875 C103.253023 22.01211017 105.83098615 23.54335766 108.40917969 25.07421875 C116.13708234 29.6631659 123.86249717 34.25627421 131.58630371 38.85211182 C136.95664042 42.04670681 142.33155722 45.23351689 147.70910645 48.41595459 C151.31921364 50.55348344 154.92037874 52.70518448 158.51586914 54.8671875 C168.5920589 60.87976198 178.89512798 65.92320708 189.67700195 70.55029297 C193.46235328 72.18229594 197.2248107 73.86570426 200.98852539 75.546875 C198.1968676 78.53284772 195.43033222 80.64417726 191.92602539 82.734375 C176.15608329 92.59058881 164.5548872 105.48076976 153.98852539 120.546875 C150.72404271 119.05689323 148.0792002 117.16781293 145.23852539 114.984375 C135.57472246 107.93171882 125.46132581 102.06662321 114.11352539 98.171875 C113.46826904 97.9454834 112.8230127 97.7190918 112.15820312 97.48583984 C96.63581192 92.53311236 80.36095487 91.98279598 64.22119141 91.53833008 C49.99343536 91.12141432 36.66892671 89.64484849 23.80102539 82.984375 C23.14231445 82.64849365 22.48360352 82.3126123 21.80493164 81.96655273 C14.83249768 78.21768714 9.45150037 73.20612453 3.98852539 67.546875 C3.25118164 66.84046875 2.51383789 66.1340625 1.75415039 65.40625 C-10.18830986 53.27863533 -16.24268181 35.24562757 -16.51147461 18.546875 C-16.53951172 17.34454224 -16.53951172 17.34454224 -16.56811523 16.11791992 C-16.51020692 10.82432038 -15.59941561 7.67546464 -12.01147461 3.546875 C-7.98964022 0.57317021 -4.95547277 0.13037692 0 0 Z " fill="#001941" transform="translate(16.011474609375,59.453125)"/>
<path d="M0 0 C0 0.66 0 1.32 0 2 C-1.8359375 3.41015625 -1.8359375 3.41015625 -4.375 5.0625 C-16.26049755 13.16548418 -25.40282257 23.15381173 -33.23046875 35.13671875 C-33.78817459 35.97918655 -34.34588043 36.82165436 -34.92048645 37.68965149 C-36.68175215 40.35195738 -38.43507947 43.01936544 -40.1875 45.6875 C-41.951863 48.36550363 -43.71793687 51.04234997 -45.48664856 53.71748352 C-46.58132446 55.37398714 -47.67333362 57.03225713 -48.76225281 58.69255066 C-51.34880829 62.61471715 -53.97925808 66.39125279 -57 70 C-87.67026134 64.03633807 -113.24265718 50.91091441 -139.50415039 34.53125 C-141.88115758 33.02336107 -141.88115758 33.02336107 -144 32 C-142.53287713 27.48126157 -140.00298949 24.22929853 -136.9375 20.6875 C-136.44217773 20.11281982 -135.94685547 19.53813965 -135.43652344 18.94604492 C-103.74204566 -17.26820806 -40.1658058 -31.37658242 0 0 Z " fill="#001942" transform="translate(312,46)"/>
</svg>
