<?xml version="1.0" encoding="UTF-8"?>
<svg version="1.1" xmlns="http://www.w3.org/2000/svg" width="512" height="512">
<path d="M0 0 C2.5513397 -0.00543118 5.10267625 -0.01255939 7.65400696 -0.02124023 C13.82058052 -0.03748092 19.9868978 -0.03525081 26.15347424 -0.02358967 C31.16962616 -0.01450195 36.18572359 -0.0133542 41.20188141 -0.01768494 C41.91976975 -0.01829787 42.6376581 -0.0189108 43.37730063 -0.01954231 C44.8362898 -0.02082138 46.29527895 -0.02211824 47.75426808 -0.02343267 C61.38393897 -0.03479572 75.01350164 -0.02179059 88.64315477 -0.00023121 C100.30919496 0.01765126 111.97507593 0.01451794 123.64111328 -0.00390625 C137.23308623 -0.02536243 150.82496485 -0.03371353 164.41695237 -0.0214572 C165.86891316 -0.02018316 167.32087396 -0.01892568 168.77283478 -0.01768494 C169.84406433 -0.01675928 169.84406433 -0.01675928 170.93693487 -0.01581493 C175.94249472 -0.01237738 180.94799413 -0.0181554 185.95354462 -0.02760315 C192.70072364 -0.04006005 199.44755754 -0.03106158 206.19472313 -0.00802612 C208.66251569 -0.00276159 211.13033366 -0.00421386 213.59811592 -0.01307678 C235.38017614 -0.08406326 252.43056098 2.48837108 268.90722656 18.14648438 C284.75913828 34.40004926 288.74711783 52.45295688 288.51269531 74.41601562 C288.50708262 75.98783966 288.50282046 77.55966903 288.49983215 79.13150024 C288.48851477 83.21841569 288.45916495 87.30499842 288.42572021 91.39178467 C288.3947323 95.58210757 288.3812662 99.77248556 288.36621094 103.96289062 C288.33427899 112.14793717 288.28324694 120.33271597 288.21972656 128.51757812 C289.17492691 128.50987396 290.13012726 128.5021698 291.11427307 128.49423218 C292.37054001 128.48824005 293.62680695 128.48224792 294.92114258 128.47607422 C296.7870681 128.46451797 296.7870681 128.46451797 298.69068909 128.45272827 C303.0167427 128.53222415 306.96904564 129.11307838 311.15722656 130.14257812 C311.90955566 130.32006592 312.66188477 130.49755371 313.43701172 130.68041992 C329.33514004 134.62732201 343.69510677 141.94024904 356.21972656 152.51757812 C357.03183594 153.195625 357.84394531 153.87367188 358.68066406 154.57226562 C378.56740559 171.7666483 391.93995677 196.60088714 394.44794655 222.91179657 C394.79944803 228.81668069 394.76553831 234.72183212 394.73730469 240.63476562 C394.7427413 242.57863892 394.74987249 244.52250808 394.75854492 246.46636963 C394.77659837 251.68959132 394.76978595 256.91249285 394.75702858 262.1357193 C394.74680673 267.63654865 394.75631949 273.13735301 394.76257324 278.63818359 C394.76982316 287.8708176 394.76033203 297.10332307 394.74121094 306.3359375 C394.71944742 316.96630851 394.72650067 327.59637249 394.74851656 338.22673607 C394.76674663 347.40100393 394.76919189 356.57518008 394.75876188 365.74946022 C394.75256857 371.20816698 394.75157535 376.66673007 394.76490784 382.12542725 C394.77657718 387.2606396 394.76824109 392.39546128 394.74533081 397.53063202 C394.7401023 399.4000967 394.74145504 401.26959504 394.75038147 403.13904572 C394.88858051 435.05759457 383.55832717 461.15640765 361.70800781 484.16210938 C339.23158706 506.0189657 310.58504374 513.16590335 280.17480469 513.03515625 C278.02403798 513.04059071 275.873275 513.04772072 273.72251892 513.05639648 C267.93527608 513.07447532 262.14832168 513.06762666 256.36107445 513.05488014 C250.27167422 513.04467179 244.18229682 513.05416739 238.09289551 513.0604248 C227.87161884 513.06767856 217.65045822 513.05817336 207.42919922 513.0390625 C195.65367535 513.01729827 183.87842863 513.02435124 172.10291147 513.04636812 C161.94776256 513.06458708 151.79269652 513.0670488 141.63753653 513.05661345 C135.5919755 513.05041411 129.54654424 513.04944396 123.50099182 513.0627594 C117.81423186 513.07441229 112.12782523 513.06612158 106.44110298 513.04318237 C104.36845546 513.0379453 102.2957776 513.03932186 100.22314262 513.04823303 C68.55585361 513.17171188 40.99187082 503.12261407 18.03222656 480.83007812 C-1.28706779 461.32147172 -11.72551389 433.82407049 -11.97558594 406.58789062 C-11.96253909 403.93938156 -11.93905973 401.29090382 -11.90527344 398.64257812 C-11.89520369 397.26107434 -11.88608504 395.87956329 -11.87792969 394.49804688 C-11.85466384 391.17103081 -11.82197908 387.84440527 -11.78027344 384.51757812 C-13.14067749 384.54585693 -13.14067749 384.54585693 -14.52856445 384.57470703 C-21.47520077 384.65828526 -27.96324879 384.55391868 -34.71777344 382.89257812 C-35.47227783 382.71364014 -36.22678223 382.53470215 -37.00415039 382.3503418 C-64.18608957 375.57699678 -87.74515729 358.56624099 -102.53027344 334.76757812 C-114.3781346 315.00200805 -118.40675435 295.2077739 -118.29785156 272.40039062 C-118.30328818 270.45651733 -118.31041936 268.51264817 -118.3190918 266.56878662 C-118.33714525 261.34556493 -118.33033282 256.1226634 -118.31757545 250.89943695 C-118.30735361 245.3986076 -118.31686636 239.89780324 -118.32312012 234.39697266 C-118.33037003 225.16433865 -118.32087891 215.93183318 -118.30175781 206.69921875 C-118.2799943 196.06884774 -118.28704755 185.43878376 -118.30906343 174.80842018 C-118.3272935 165.63415232 -118.32973877 156.45997617 -118.31930876 147.28569603 C-118.31311544 141.82698927 -118.31212222 136.36842618 -118.32545471 130.909729 C-118.33712405 125.77451665 -118.32878797 120.63969497 -118.30587769 115.50452423 C-118.30064918 113.63505955 -118.30200192 111.76556121 -118.31092834 109.89611053 C-118.44912738 77.97756168 -107.11887405 51.8787486 -85.26855469 28.87304688 C-61.54465708 5.8031005 -31.88148893 -0.11491356 0 0 Z M-60.13574219 66.25585938 C-72.32989924 82.43084819 -75.40015403 99.2241779 -75.29785156 118.97070312 C-75.30328741 120.75989345 -75.31041819 122.54907928 -75.3190918 124.33825684 C-75.33715438 129.14826166 -75.33032902 133.95791904 -75.31757545 138.76792908 C-75.30735842 143.83194834 -75.31686505 148.89594035 -75.32312012 153.95996094 C-75.33037141 162.45968904 -75.32087527 170.95927753 -75.30175781 179.45898438 C-75.27999399 189.24753128 -75.28704715 199.03574476 -75.30906343 208.8242836 C-75.32728956 217.26982577 -75.32974068 225.71526831 -75.31930876 234.16082382 C-75.31311329 239.1869019 -75.31212828 244.21282392 -75.32545471 249.2388916 C-75.33711827 253.96697891 -75.32879838 258.69464166 -75.30587769 263.42268372 C-75.30064613 265.14463094 -75.30200739 266.86661469 -75.31092834 268.58854675 C-75.41229616 290.16504371 -70.3076004 308.67656779 -54.78027344 324.51757812 C-42.78956882 334.83197882 -27.80244923 341.77066403 -11.78027344 341.51757812 C-11.77788508 340.77141802 -11.77549673 340.02525791 -11.773036 339.25648689 C-11.7136647 321.02416166 -11.63797523 302.79196926 -11.54455853 284.55978584 C-11.49976671 275.74250618 -11.4603147 266.92526541 -11.43383789 258.10791016 C-11.41072222 250.4145482 -11.37717556 242.72131107 -11.33157188 235.0280484 C-11.30782076 230.96191929 -11.28897435 226.8959124 -11.28265953 222.82971573 C-11.22006003 187.25905308 -6.70557521 157.23412002 17.21972656 129.51757812 C18.074375 128.51017578 18.074375 128.51017578 18.94628906 127.48242188 C32.12437282 113.18926949 50.68189809 105.31229614 67.79913402 96.87299562 C71.5197518 95.03483149 75.23224524 93.1803962 78.94569397 91.32780457 C85.9519733 87.83546633 92.96525344 84.35744224 99.98127991 80.88473481 C107.97982336 76.92482581 115.97025324 72.94867333 123.96010196 68.97125781 C140.37112664 60.80215486 156.79203587 52.65311031 173.21972656 44.51757812 C173.21972656 44.18757813 173.21972656 43.85757813 173.21972656 43.51757812 C148.59278909 43.42392876 123.96587851 43.35349821 99.33879852 43.31032944 C87.90272552 43.28974819 76.46676348 43.26171281 65.03076172 43.21582031 C55.05731932 43.17581629 45.08395733 43.1501131 35.11043692 43.14122415 C29.83479952 43.1360323 24.55939207 43.12392298 19.28382874 43.0946579 C14.30650956 43.06727399 9.32951252 43.05917903 4.35212517 43.0651474 C2.53663818 43.06405735 0.72113912 43.05624155 -1.09428215 43.04075623 C-23.92305804 42.85577156 -44.60896079 48.20565413 -60.13574219 66.25585938 Z M238.69538593 59.47212887 C237.68049186 59.98188039 236.66559778 60.49163191 235.61994934 61.01683044 C234.45467209 61.59603241 233.28939484 62.17523438 232.08880615 62.77198792 C230.79617138 63.42715366 229.50363311 64.08250983 228.21118164 64.73803711 C226.85158006 65.4185428 225.49153791 66.09816888 224.13108826 66.77697754 C220.43263687 68.62548415 216.74049325 70.48628382 213.04933 72.34929156 C209.19317023 74.29296958 205.331367 76.22536754 201.47013855 78.15895081 C194.15634933 81.82362449 186.84771916 85.49846735 179.54087132 89.17695814 C171.22325851 93.36368046 162.89998307 97.53908453 154.57620394 101.71353042 C137.45103039 110.30226864 120.33304793 118.90525033 103.21972656 127.51757812 C103.21972656 127.84757812 103.21972656 128.17757812 103.21972656 128.51757812 C149.74972656 128.51757812 196.27972656 128.51757812 244.21972656 128.51757812 C244.21972656 105.74757813 244.21972656 82.97757813 244.21972656 59.51757812 C241.28598878 58.18892532 241.28598878 58.18892532 238.69538593 59.47212887 Z M40.21972656 171.51757812 C39.41922262 173.07184254 38.62421108 174.62893631 37.83142948 176.18715382 C37.16643801 177.4873388 37.16643801 177.4873388 36.48801237 178.81379014 C31.10004332 190.3001017 31.78595245 202.54158393 31.81567383 214.92895508 C31.80996353 217.08370313 31.80299673 219.23844816 31.7948761 221.39318848 C31.77700113 227.21772342 31.7781026 233.04210723 31.78381848 238.86666131 C31.78691898 243.7420745 31.78080822 248.61745903 31.77477974 253.49286813 C31.76075427 265.00202445 31.76227893 276.51110651 31.77368164 288.02026367 C31.78515697 299.86387737 31.77109234 311.70726446 31.74428517 323.55084831 C31.72207822 333.74658555 31.71550215 343.94225193 31.72136158 354.13801163 C31.72472087 360.21543347 31.72238473 366.29271014 31.70511055 372.37011147 C31.68956414 378.08877799 31.69368208 383.80711076 31.7124157 389.52576447 C31.71608053 391.61418535 31.71305522 393.7026314 31.70252991 395.79102898 C31.60584895 416.57477754 34.89468078 434.43932383 49.67895508 450.26245117 C57.8024192 458.42692218 68.05471511 464.60562244 79.21972656 467.51757812 C80.09945035 467.76552848 80.09945035 467.76552848 80.99694633 468.01848793 C90.16540239 470.24728259 99.54898588 469.81372773 108.91943359 469.80810547 C110.91462962 469.81409689 112.90982333 469.82090384 114.90501404 469.82846069 C120.30409681 469.84606752 125.70311611 469.85081389 131.10222483 469.85209227 C134.4824212 469.85351768 137.86260164 469.85779472 141.24279404 469.8630867 C153.05542773 469.88157091 164.86801639 469.88975952 176.68066406 469.88818359 C187.65852416 469.88698334 198.63618729 469.90806723 209.61399758 469.93967092 C219.06576044 469.96590297 228.51745925 469.97654796 237.96925819 469.97527277 C243.60242071 469.97476509 249.23540812 469.98034068 254.86853409 470.00162888 C260.17267903 470.02112776 265.47648395 470.02105667 270.78064156 470.00659561 C272.71545349 470.00452065 274.65028737 470.00912903 276.58506203 470.02131653 C298.87782064 470.15252593 317.75636422 465.6549333 334.21972656 449.51757812 C348.30262268 433.14591945 351.84571832 414.99056036 351.73730469 394.06445312 C351.74274054 392.2752628 351.74987131 390.48607697 351.75854492 388.69689941 C351.7766075 383.88689459 351.76978214 379.07723721 351.75702858 374.26722717 C351.74681154 369.20320791 351.75631818 364.1392159 351.76257324 359.07519531 C351.76982453 350.57546721 351.7603284 342.07587872 351.74121094 333.57617188 C351.71944711 323.78762497 351.72650027 313.99941149 351.74851656 304.21087265 C351.76674268 295.76533048 351.76919381 287.31988794 351.75876188 278.87433243 C351.75256641 273.84825435 351.75158141 268.82233233 351.76490784 263.79626465 C351.77657139 259.06817734 351.76825151 254.34051459 351.74533081 249.61247253 C351.74009926 247.89052531 351.74146051 246.16854156 351.75038147 244.4466095 C351.85174928 222.87011254 346.74705352 204.35858846 331.21972656 188.51757812 C312.59597663 172.49743374 292.6202158 170.91379597 269.08691406 171.06347656 C266.58212299 171.06460679 264.07733059 171.06396776 261.57254028 171.06170654 C256.21101859 171.06080077 250.84973956 171.07201722 245.48828125 171.0946579 C237.73685763 171.12736949 229.9855278 171.13760432 222.23404264 171.14260986 C209.6533705 171.15133274 197.07280296 171.17786598 184.4921875 171.21582031 C172.28190631 171.25261875 160.07165368 171.28089199 147.86132812 171.29785156 C147.10683482 171.29890246 146.35234152 171.29995335 145.57498479 171.30103609 C141.78936102 171.30625679 138.00373705 171.31131149 134.21811295 171.3162837 C102.88524146 171.35765192 71.5525 171.428318 40.21972656 171.51757812 Z " fill="#FFFFFF" transform="translate(117.7802734375,-0.517578125)"/>
<path d="M0 0 C1.75244019 -0.00574036 1.75244019 -0.00574036 3.5402832 -0.01159668 C6.00114813 -0.01430887 8.46204223 -0.0069965 10.92285156 0.00976562 C14.67578803 0.03118316 18.42681012 0.00993822 22.1796875 -0.015625 C24.5781292 -0.0129816 26.97656971 -0.00785638 29.375 0 C31.04719604 -0.01214539 31.04719604 -0.01214539 32.75317383 -0.02453613 C40.98538261 0.0738781 46.54677148 1.46031544 52.5 7.28125 C57.49698617 14.70534374 58.14618844 21.17039373 58.12109375 29.8984375 C58.1263356 30.97320343 58.13157745 32.04796936 58.13697815 33.15530396 C58.14337589 35.41944519 58.14209065 37.68361976 58.13354492 39.94775391 C58.12504273 43.38895632 58.1538175 46.82849274 58.18554688 50.26953125 C58.18715945 52.47916617 58.18658027 54.68880401 58.18359375 56.8984375 C58.19482773 57.91541718 58.20606171 58.93239685 58.21763611 59.98019409 C58.1462853 67.391869 57.06455894 74.77455203 51.93748474 80.47799683 C47.26919069 84.77494979 42.71116222 86.76359258 36.3215332 86.83764648 C34.74883415 86.86162758 34.74883415 86.86162758 33.1443634 86.88609314 C32.02035629 86.89145584 30.89634918 86.89681854 29.73828125 86.90234375 C28.5704863 86.91137222 27.40269135 86.9204007 26.19950867 86.92970276 C23.72914184 86.9441996 21.25873667 86.95309058 18.78833008 86.95678711 C15.03074393 86.96865292 11.27481644 87.01782241 7.51757812 87.06835938 C5.11198714 87.07782772 2.70638611 87.08506078 0.30078125 87.08984375 C-0.81310471 87.10937607 -1.92699066 87.12890839 -3.07463074 87.14903259 C-10.4583731 87.10686453 -16.18789091 85.81224193 -22.3125 81.53125 C-26.73046969 76.89192383 -28.42909306 72.47316007 -28.47363281 66.14526367 C-28.48324036 65.04369431 -28.4928479 63.94212494 -28.50274658 62.80717468 C-28.5091214 61.0212365 -28.5091214 61.0212365 -28.515625 59.19921875 C-28.52132507 57.97471512 -28.52702515 56.75021149 -28.53289795 55.48860168 C-28.54235113 52.89532333 -28.54888319 50.30203295 -28.55273438 47.70874023 C-28.56243559 43.7450662 -28.59345522 39.78191157 -28.625 35.81835938 C-28.63153049 33.29948225 -28.63678078 30.78060141 -28.640625 28.26171875 C-28.6529718 27.07716599 -28.6653186 25.89261322 -28.67803955 24.67216492 C-28.65810765 17.29324915 -27.96163655 12.71021386 -23.125 6.90625 C-15.81926643 0.73696387 -9.41238419 -0.06836342 0 0 Z " fill="#FFFFFF" transform="translate(220.3125,340.46875)"/>
<path d="M0 0 C1.75244019 -0.00574036 1.75244019 -0.00574036 3.5402832 -0.01159668 C6.00114813 -0.01430887 8.46204223 -0.0069965 10.92285156 0.00976562 C14.67578803 0.03118316 18.42681012 0.00993822 22.1796875 -0.015625 C24.5781292 -0.0129816 26.97656971 -0.00785638 29.375 0 C31.04719604 -0.01214539 31.04719604 -0.01214539 32.75317383 -0.02453613 C40.98538261 0.0738781 46.54677148 1.46031544 52.5 7.28125 C57.49698617 14.70534374 58.14618844 21.17039373 58.12109375 29.8984375 C58.1263356 30.97320343 58.13157745 32.04796936 58.13697815 33.15530396 C58.14337589 35.41944519 58.14209065 37.68361976 58.13354492 39.94775391 C58.12504273 43.38895632 58.1538175 46.82849274 58.18554688 50.26953125 C58.18715945 52.47916617 58.18658027 54.68880401 58.18359375 56.8984375 C58.19482773 57.91541718 58.20606171 58.93239685 58.21763611 59.98019409 C58.1462853 67.391869 57.06455894 74.77455203 51.93748474 80.47799683 C47.26919069 84.77494979 42.71116222 86.76359258 36.3215332 86.83764648 C34.74883415 86.86162758 34.74883415 86.86162758 33.1443634 86.88609314 C32.02035629 86.89145584 30.89634918 86.89681854 29.73828125 86.90234375 C28.5704863 86.91137222 27.40269135 86.9204007 26.19950867 86.92970276 C23.72914184 86.9441996 21.25873667 86.95309058 18.78833008 86.95678711 C15.03074393 86.96865292 11.27481644 87.01782241 7.51757812 87.06835938 C5.11198714 87.07782772 2.70638611 87.08506078 0.30078125 87.08984375 C-0.81310471 87.10937607 -1.92699066 87.12890839 -3.07463074 87.14903259 C-10.4583731 87.10686453 -16.18789091 85.81224193 -22.3125 81.53125 C-26.73046969 76.89192383 -28.42909306 72.47316007 -28.47363281 66.14526367 C-28.48324036 65.04369431 -28.4928479 63.94212494 -28.50274658 62.80717468 C-28.5091214 61.0212365 -28.5091214 61.0212365 -28.515625 59.19921875 C-28.52132507 57.97471512 -28.52702515 56.75021149 -28.53289795 55.48860168 C-28.54235113 52.89532333 -28.54888319 50.30203295 -28.55273438 47.70874023 C-28.56243559 43.7450662 -28.59345522 39.78191157 -28.625 35.81835938 C-28.63153049 33.29948225 -28.63678078 30.78060141 -28.640625 28.26171875 C-28.6529718 27.07716599 -28.6653186 25.89261322 -28.67803955 24.67216492 C-28.65810765 17.29324915 -27.96163655 12.71021386 -23.125 6.90625 C-15.81926643 0.73696387 -9.41238419 -0.06836342 0 0 Z " fill="#FFFFFF" transform="translate(220.3125,212.46875)"/>
<path d="M0 0 C0.68707031 -0.00671722 1.37414062 -0.01343445 2.08203125 -0.02035522 C4.33894212 -0.03925152 6.59555415 -0.04325545 8.85253906 -0.04541016 C10.43426634 -0.05184507 12.01599245 -0.05857394 13.59771729 -0.06558228 C16.90957393 -0.07753498 20.22132644 -0.08126529 23.53320312 -0.08007812 C27.75402091 -0.07987532 31.9741625 -0.10714629 36.1948204 -0.14162254 C39.46188352 -0.16398531 42.72878649 -0.16791278 45.99591827 -0.16685867 C47.55068536 -0.16920174 49.10545775 -0.17795147 50.66014862 -0.19352341 C69.73855565 -0.36669194 69.73855565 -0.36669194 76.7958374 6.04067993 C82.2284404 11.87069531 83.33455892 17.45331408 83.18066406 25.28271484 C82.55984954 31.25805461 80.26057926 34.86646635 76.11816406 39.10302734 C67.3605001 44.99760886 58.84610284 44.74996711 48.65332031 44.72412109 C47.07205482 44.72868972 45.49079131 44.7339973 43.90953064 44.74000549 C40.6053762 44.7489087 37.30146383 44.7465455 33.99731445 44.73657227 C29.78314416 44.72508564 25.56981224 44.74530298 21.35575199 44.7744894 C18.09300006 44.79291981 14.83044653 44.79254543 11.56765556 44.78685188 C10.01486472 44.78669951 8.46205971 44.79267414 6.90931892 44.80514336 C-11.27124058 44.93059713 -11.27124058 44.93059713 -17.99571228 38.51121521 C-23.74180556 32.22811636 -24.64303366 27.27192091 -24.51074219 18.77880859 C-23.82061798 12.42539712 -20.79231145 8.62528329 -16.19433594 4.41552734 C-10.94369108 0.77222275 -6.31826417 0.03898383 0 0 Z " fill="#FFFFFF" transform="translate(344.1318359375,361.70947265625)"/>
<path d="M0 0 C0.68707031 -0.00671722 1.37414062 -0.01343445 2.08203125 -0.02035522 C4.33894212 -0.03925152 6.59555415 -0.04325545 8.85253906 -0.04541016 C10.43426634 -0.05184507 12.01599245 -0.05857394 13.59771729 -0.06558228 C16.90957393 -0.07753498 20.22132644 -0.08126529 23.53320312 -0.08007812 C27.75402091 -0.07987532 31.9741625 -0.10714629 36.1948204 -0.14162254 C39.46188352 -0.16398531 42.72878649 -0.16791278 45.99591827 -0.16685867 C47.55068536 -0.16920174 49.10545775 -0.17795147 50.66014862 -0.19352341 C69.73855565 -0.36669194 69.73855565 -0.36669194 76.7958374 6.04067993 C82.2284404 11.87069531 83.33455892 17.45331408 83.18066406 25.28271484 C82.55984954 31.25805461 80.26057926 34.86646635 76.11816406 39.10302734 C67.3605001 44.99760886 58.84610284 44.74996711 48.65332031 44.72412109 C47.07205482 44.72868972 45.49079131 44.7339973 43.90953064 44.74000549 C40.6053762 44.7489087 37.30146383 44.7465455 33.99731445 44.73657227 C29.78314416 44.72508564 25.56981224 44.74530298 21.35575199 44.7744894 C18.09300006 44.79291981 14.83044653 44.79254543 11.56765556 44.78685188 C10.01486472 44.78669951 8.46205971 44.79267414 6.90931892 44.80514336 C-11.27124058 44.93059713 -11.27124058 44.93059713 -17.99571228 38.51121521 C-23.74180556 32.22811636 -24.64303366 27.27192091 -24.51074219 18.77880859 C-23.82061798 12.42539712 -20.79231145 8.62528329 -16.19433594 4.41552734 C-10.94369108 0.77222275 -6.31826417 0.03898383 0 0 Z " fill="#FFFFFF" transform="translate(344.1318359375,233.70947265625)"/>
</svg>
