<?xml version="1.0" encoding="UTF-8"?>
<svg version="1.1" xmlns="http://www.w3.org/2000/svg" width="512" height="512">
<path d="M0 0 C1.79849458 -0.00417658 3.59698652 -0.00965587 5.3954736 -0.01631981 C10.32085174 -0.03075059 15.2460622 -0.02653707 20.17144942 -0.019153 C25.48990552 -0.01441778 30.80832553 -0.02693432 36.12677002 -0.03717041 C46.5395664 -0.0543568 56.95230243 -0.05519874 67.36510931 -0.04995751 C75.8296869 -0.04591427 84.29424666 -0.0473612 92.75882339 -0.05270576 C93.96406132 -0.05345419 95.16929925 -0.05420261 96.41105954 -0.05497371 C98.85958743 -0.0565052 101.30811531 -0.05804355 103.75664319 -0.05958868 C126.71278425 -0.07331315 149.66889121 -0.0678764 172.62503149 -0.05640347 C193.61960079 -0.04647123 214.61408196 -0.05941173 235.60863768 -0.08333766 C257.17417803 -0.10772884 278.73967734 -0.11733647 300.30523121 -0.11068493 C312.40932282 -0.10719275 324.51334665 -0.10942476 336.61742783 -0.12693596 C346.9213587 -0.14165813 357.22517406 -0.14229309 367.52910267 -0.12486505 C372.78427263 -0.11635288 378.03923625 -0.11421097 383.29439545 -0.1295166 C388.10955986 -0.14336693 392.92434121 -0.13859592 397.73948349 -0.11927737 C399.47693595 -0.11551814 401.21441911 -0.11843708 402.9518442 -0.12888902 C419.53234718 -0.22150315 431.70268551 3.22038214 444.07595825 14.70018005 C456.35499728 27.67425902 456.77197224 41.93553613 456.73001099 58.79344177 C456.73571938 60.8640937 456.74268545 62.93474249 456.75080872 65.00538635 C456.76870386 70.60877263 456.7675785 76.21200199 456.76186633 81.81540823 C456.75876904 86.50211937 456.76487299 91.1888006 456.77090508 95.87550747 C456.7849369 106.93671937 456.78340033 117.997854 456.77200317 129.05906677 C456.76052472 140.45054415 456.77459624 151.84178603 456.80139965 163.23323238 C456.82358855 173.03228339 456.83018678 182.83126064 456.82432324 192.63033497 C456.82095994 198.47462615 456.82332703 204.31876641 456.84057426 210.16303635 C456.856092 215.66088317 456.8520342 221.15838234 456.83326912 226.65621567 C456.82959653 228.66687964 456.83265262 230.67756964 456.84315491 232.68820953 C456.92761169 250.2026338 454.29800487 262.89702485 442.01345825 276.13768005 C429.90930363 287.59339782 416.52058451 288.83536746 400.6519165 288.77536011 C398.85342193 288.77953669 397.05492999 288.78501598 395.2564429 288.79167992 C390.33106477 288.8061107 385.4058543 288.80189718 380.48046708 288.79451311 C375.16201098 288.78977789 369.84359097 288.80229443 364.52514648 288.81253052 C354.1123501 288.82971691 343.69961407 288.83055885 333.28680719 288.82531761 C324.82222961 288.82127438 316.35766984 288.82272131 307.89309311 288.82806587 C306.68785518 288.82881429 305.48261726 288.82956272 304.24085697 288.83033382 C301.79232908 288.83186531 299.34380119 288.83340366 296.89527331 288.83494879 C273.93913226 288.84867326 250.98302529 288.84323651 228.02688502 288.83176357 C207.03231571 288.82183133 186.03783454 288.83477183 165.04327883 288.85869776 C143.47773847 288.88308894 121.91223916 288.89269658 100.34668529 288.88604504 C88.24259368 288.88255286 76.13856985 288.88478486 64.03448868 288.90229607 C53.73055781 288.91701824 43.42674244 288.9176532 33.12281384 288.90022516 C27.86764387 288.89171299 22.61268026 288.88957107 17.35752106 288.90487671 C12.54235664 288.91872703 7.72757529 288.91395603 2.91243301 288.89463747 C1.17498056 288.89087824 -0.56250261 288.89379719 -2.2999277 288.90424912 C-18.88043068 288.99686325 -31.050769 285.55497796 -43.42404175 274.07518005 C-55.70308077 261.10110109 -56.12005573 246.83982398 -56.07809448 229.98191833 C-56.08380287 227.9112664 -56.09076895 225.84061762 -56.09889221 223.76997375 C-56.11678735 218.16658748 -56.115662 212.56335811 -56.10994983 206.95995188 C-56.10685253 202.27324074 -56.11295649 197.58655951 -56.11898857 192.89985263 C-56.1330204 181.83864074 -56.13148382 170.77750611 -56.12008667 159.71629333 C-56.10860822 148.32481595 -56.12267974 136.93357408 -56.14948314 125.54212773 C-56.17167205 115.74307672 -56.17827028 105.94409947 -56.17240673 96.14502513 C-56.16904344 90.30073395 -56.17141053 84.45659369 -56.18865776 78.61232376 C-56.20417549 73.11447694 -56.2001177 67.61697777 -56.18135262 62.11914444 C-56.17768003 60.10848047 -56.18073611 58.09779047 -56.1912384 56.08715057 C-56.27569519 38.57272631 -53.64608837 25.87833526 -41.36154175 12.63768005 C-29.25738713 1.18196229 -15.868668 -0.06000736 0 0 Z M157.72073364 60.84007263 C153.63155473 65.56055835 152.97005077 68.79048057 153.0486145 74.84861755 C153.45972269 78.61228408 154.80882185 80.60558193 157.32595825 83.38768005 C163.55513236 88.29149797 168.88296183 88.52387244 176.58377075 88.59861755 C178.19445841 88.62666276 179.80513538 88.65532703 181.415802 88.68455505 C183.94168051 88.72593867 186.46735425 88.76285009 188.99343872 88.78904724 C191.44062696 88.81659176 193.88692424 88.86242926 196.33377075 88.91111755 C197.09005768 88.91437042 197.8463446 88.91762329 198.62554932 88.92097473 C201.46961794 88.98786481 203.7756609 89.08654058 206.30056763 90.46824646 C207.91140047 93.48357212 207.7155976 96.17993033 207.72439575 99.57518005 C207.72726593 100.27409363 207.73013611 100.9730072 207.73309326 101.69309998 C207.73513251 103.16910107 207.72961228 104.64512927 207.71707153 106.12107849 C207.70101405 108.37983143 207.71692296 110.63679523 207.7361145 112.89549255 C207.73413204 114.33039233 207.73028831 115.765291 207.72439575 117.20018005 C207.72101196 118.50600037 207.71762817 119.81182068 207.71414185 121.1572113 C207.32595825 124.38768005 207.32595825 124.38768005 206.03860474 126.30003357 C202.53353579 128.52598969 197.81894414 128.20834533 193.74978638 128.47166443 C187.28853531 129.03326571 183.37947735 131.11800105 178.95095825 136.01268005 C176.74687932 140.59038245 176.52879435 144.39320416 177.32595825 149.38768005 C179.69972052 154.31780168 182.59701382 156.73751212 187.32595825 159.38768005 C190.20616201 160.03849533 193.07072944 160.25975325 196.01345825 160.45018005 C203.68058491 160.97782428 203.68058491 160.97782428 206.03860474 162.47532654 C208.03113411 165.43521324 207.71524674 168.04453105 207.72439575 171.57518005 C207.72726593 172.27409363 207.73013611 172.9730072 207.73309326 173.69309998 C207.73513251 175.16910107 207.72961228 176.64512927 207.71707153 178.12107849 C207.70101405 180.37983143 207.71692296 182.63679523 207.7361145 184.89549255 C207.73413204 186.33039233 207.73028831 187.765291 207.72439575 189.20018005 C207.72101196 190.50600037 207.71762817 191.81182068 207.71414185 193.1572113 C207.32595825 196.38768005 207.32595825 196.38768005 206.29177856 198.31150818 C203.16448873 200.02351682 199.9499335 199.8080485 196.47439575 199.79393005 C195.70092804 199.80476624 194.92746033 199.81560242 194.1305542 199.82676697 C191.65393812 199.86104108 189.17778017 199.87660777 186.70095825 199.88768005 C171.29404053 199.07777957 171.29404053 199.07777957 157.72976685 204.83909607 C153.62581086 209.54901008 152.97007667 212.79247797 153.0486145 218.84861755 C153.45972269 222.61228408 154.80882185 224.60558193 157.32595825 227.38768005 C164.84829663 233.3095209 172.56601873 232.57401632 181.71585083 232.57298279 C183.85757954 232.57514882 185.99877501 232.59327132 188.14041138 232.61228943 C204.09123693 232.67938991 217.26253067 230.9056962 229.2829895 219.62986755 C242.27680372 205.36897011 240.90888117 186.43266759 240.32595825 168.38768005 C239.79513209 160.84994855 238.15212003 155.13489585 234.2517395 148.6415863 C233.0672264 145.7577717 233.4105165 144.33484203 234.32595825 141.38768005 C234.93523429 140.03725005 235.58246806 138.7034045 236.26345825 137.38768005 C243.10600795 122.11013272 243.09770683 97.33128957 237.3611145 81.77049255 C232.73129502 71.51318206 225.42107517 64.26118477 215.32595825 59.38768005 C206.02970672 56.02179588 196.31222507 56.17415959 186.54495239 56.14744568 C184.39669383 56.13771735 182.24938498 56.10660634 180.10134888 56.07518005 C168.12107497 55.71672942 168.12107497 55.71672942 157.72073364 60.84007263 Z M267.368927 69.14549255 C259.53437059 77.74403057 256.80265015 86.86738869 257.01345825 98.35643005 C257.57637441 103.81671678 260.03208033 106.2170286 263.95095825 109.76268005 C268.52866065 111.96675898 272.33148236 112.18484396 277.32595825 111.38768005 C282.22596531 109.0284174 284.80404435 106.17062021 287.32595825 101.38768005 C288.19261066 98.50152598 288.94119661 95.61772931 289.61502075 92.6806488 C289.84963013 91.92396912 290.0842395 91.16728943 290.32595825 90.38768005 C294.43780738 88.33175549 299.74430113 89.15858998 304.26345825 89.13768005 C305.92924927 89.10674255 305.92924927 89.10674255 307.62869263 89.07518005 C308.69281372 89.0700238 309.75693481 89.06486755 310.853302 89.05955505 C311.83033081 89.05020935 312.80735962 89.04086365 313.81399536 89.03123474 C316.32595825 89.38768005 316.32595825 89.38768005 318.14309692 90.70896912 C321.44397236 95.39355518 319.68243725 104.81893435 318.92752075 110.2587738 C315.30839007 125.69883132 305.36161513 139.31826488 296.52432251 152.14942932 C293.29432636 156.83934233 290.09637568 161.55108987 286.8923645 166.2587738 C286.25189178 167.19768967 285.61141907 168.13660553 284.95153809 169.10397339 C278.89603427 177.98952511 272.96345322 186.95269518 267.07595825 195.95018005 C266.4049559 196.97329285 266.4049559 196.97329285 265.72039795 198.01707458 C258.3162891 208.7420389 258.3162891 208.7420389 257.32595825 221.38768005 C259.67388483 226.26414295 262.61356679 228.79105619 267.32595825 231.38768005 C271.1208452 232.37105426 274.71502321 232.5245092 278.62576294 232.54881287 C279.87766418 232.55842041 281.12956543 232.56802795 282.41940308 232.57792664 C283.77887793 232.58277596 285.13835492 232.58705446 286.49783325 232.59080505 C287.53323116 232.59504612 287.53323116 232.59504612 288.5895462 232.59937286 C292.2438749 232.6143299 295.89816449 232.62358081 299.55252075 232.62791443 C303.30588853 232.63338788 307.05889151 232.65740172 310.81214523 232.68588638 C313.71714281 232.70461631 316.62205441 232.70972387 319.52710724 232.71125031 C320.90965006 232.71425506 322.29219217 232.72220896 323.67467499 232.73543549 C336.09528673 233.15232042 336.09528673 233.15232042 346.93649292 227.93559265 C351.01594571 223.20744146 351.68189212 219.98691387 351.603302 213.92674255 C351.19219381 210.16307603 349.84309465 208.16977818 347.32595825 205.38768005 C341.22417757 200.58415058 335.94758894 200.24697475 328.400177 200.0712738 C327.65258621 200.05049271 326.90499542 200.02971161 326.13475037 200.00830078 C323.7610743 199.94323816 321.38729338 199.88412295 319.01345825 199.82518005 C317.3982133 199.78195359 315.78297872 199.73833802 314.16775513 199.69432068 C310.22059526 199.58760154 306.27333059 199.48621387 302.32595825 199.38768005 C302.66706635 198.88450256 303.00817444 198.38132507 303.35961914 197.86289978 C306.96545872 192.54259994 310.56720933 187.21954833 314.16677856 181.89500427 C315.50398452 179.91808361 316.84217204 177.94182648 318.181427 175.96629333 C327.78576447 161.79903737 327.78576447 161.79903737 337.06033325 147.4150238 C337.6460762 146.48750305 337.6460762 146.48750305 338.24365234 145.54124451 C349.32679966 127.68734098 354.64578526 105.7922169 350.665802 84.92674255 C347.4244864 74.90813071 340.23088278 66.83823004 331.32595825 61.38768005 C311.28248875 51.98068795 283.77718607 53.75367431 267.368927 69.14549255 Z M7.32595825 59.38768005 C4.29484685 62.09556868 1.57556327 65.28113157 1.08561707 69.41604614 C0.87295081 76.33422629 2.45486739 81.26425049 5.384552 87.4697113 C5.80712784 88.4045787 6.22970367 89.33944611 6.66508484 90.30264282 C8.01379745 93.27680039 9.38760343 96.23849574 10.76345825 99.20018005 C11.65259986 101.14403204 12.53998349 103.08868915 13.42556763 105.03416443 C13.863013 105.99386139 14.30045837 106.95355835 14.75115967 107.94233704 C15.63067762 109.87488687 16.50875376 111.80809354 17.38537598 113.74195862 C19.58161112 118.58328589 21.80798015 123.40479432 24.09988403 128.2016449 C24.9587943 130.05876732 25.8167445 131.91633413 26.6736145 133.7743988 C27.08719711 134.61098526 27.50077972 135.44757172 27.92689514 136.30950928 C29.85452895 140.57238075 30.74962374 143.36741853 29.30105591 147.9125824 C28.67277708 149.41720126 28.01366931 150.90928035 27.32595825 152.38768005 C26.86747749 153.49394493 26.86747749 153.49394493 26.3997345 154.62255859 C25.427348 156.96610999 24.40794287 159.28429017 23.3767395 161.6025238 C23.00042892 162.45713699 22.62411835 163.31175018 22.23640442 164.19226074 C21.04085298 166.90491338 19.83974945 169.61506516 18.63845825 172.32518005 C17.85228662 174.10692038 17.06647676 175.88882038 16.28103638 177.67088318 C15.50051928 179.43979951 14.71992069 181.20867988 13.9392395 182.9775238 C13.55601532 183.84652313 13.17279114 184.71552246 12.7779541 185.6108551 C10.87222723 189.92361461 8.94845634 194.22659789 6.98660278 198.5141449 C6.61665695 199.32855545 6.24671112 200.142966 5.86555481 200.98205566 C5.17098227 202.50895163 4.47038853 204.0331293 3.76255798 205.55392456 C1.3835097 210.80189216 -0.2008121 215.62241291 1.32595825 221.38768005 C3.65564756 226.22626554 6.48737277 229.05799075 11.32595825 231.38768005 C16.24096838 232.1721605 20.08875468 231.94792318 24.63845825 229.88768005 C31.28288008 223.70682254 34.53487628 214.93749214 38.14749146 206.77854919 C39.01473146 204.82230807 39.89328303 202.87143911 40.77322388 200.92088318 C41.33705294 199.65881608 41.9002267 198.39645597 42.462677 197.1337738 C42.96500854 196.00640808 43.46734009 194.87904236 43.9848938 193.71751404 C45.36381796 190.29367523 46.37589703 186.94977402 47.32595825 183.38768005 C47.98595825 183.38768005 48.64595825 183.38768005 49.32595825 183.38768005 C49.67013794 184.5272113 50.01431763 185.66674255 50.368927 186.84080505 C52.66580019 193.71393233 55.65809029 200.2900659 58.63137817 206.89109802 C59.63966791 209.14037855 60.62623711 211.39844958 61.61306763 213.6572113 C62.26213725 215.10441908 62.91248446 216.55105468 63.5642395 217.99705505 C63.85196732 218.66484985 64.13969513 219.33264465 64.43614197 220.02067566 C66.89391071 225.36740064 70.03690014 228.743151 75.32595825 231.38768005 C80.25116975 231.92803599 84.19537543 231.93203474 88.70095825 229.76268005 C92.1687802 226.62512687 94.97047918 224.03811907 95.6184082 219.20718384 C95.74638277 212.57169858 94.32677439 207.77648113 91.52127075 201.8134613 C91.12589111 200.93452713 90.73051147 200.05559296 90.32315063 199.15002441 C89.48147784 197.28506996 88.63140989 195.42388445 87.77352905 193.56632996 C86.4406551 190.67785205 85.1329537 187.77912959 83.83132935 184.87644958 C80.20390383 176.80537049 76.51750494 168.76480269 72.73220825 160.7665863 C72.24864868 159.72139832 71.76508911 158.67621033 71.26687622 157.59934998 C70.42222651 155.77857354 69.55334808 153.96873265 68.65457153 152.17405701 C66.86569177 148.29788665 65.87313067 145.54278225 67.1267395 141.37205505 C67.82424179 139.69535286 68.56442844 138.03628918 69.32595825 136.38768005 C69.86205917 135.15197643 70.39534679 133.91505027 70.92654419 132.67723083 C72.52524767 128.98129874 74.16744371 125.30621287 75.82131958 121.63468933 C76.90220082 119.23213342 77.97547987 116.82631313 79.04666138 114.41941833 C82.19508243 107.34966805 85.36189443 100.29032103 88.603302 93.26268005 C89.07115112 92.23159119 89.53900024 91.20050232 90.02102661 90.13816833 C90.85932126 88.29094019 91.71185995 86.45007383 92.58206177 84.61766052 C95.17452353 78.85349178 96.19822881 73.71128584 95.32595825 67.38768005 C92.98125927 62.51792063 90.05841345 59.94320586 85.32595825 57.38768005 C80.78984756 55.90851352 77.71011923 56.60460602 73.353302 58.1103363 C67.4584245 61.82444987 64.79758975 68.0699612 62.118927 74.21580505 C61.74866898 75.04602173 61.37841095 75.8762384 60.99693298 76.73161316 C60.22192417 78.47432438 59.45153811 80.21909809 58.68557739 81.96580505 C57.5090886 84.64764078 56.31819907 87.32271345 55.12478638 89.99705505 C54.37199089 91.69459842 53.62000848 93.39250263 52.868927 95.09080505 C52.51275803 95.89286377 52.15658905 96.69492249 51.78962708 97.52128601 C49.98030376 101.3112767 49.98030376 101.3112767 49.32595825 105.38768005 C48.66595825 105.38768005 48.00595825 105.38768005 47.32595825 105.38768005 C46.98177856 104.2481488 46.63759888 103.10861755 46.2829895 101.93455505 C43.98611631 95.06142778 40.99382621 88.48529421 38.02053833 81.88426208 C37.01224859 79.63498156 36.02567939 77.37691053 35.03884888 75.1181488 C34.38977925 73.67094103 33.73943204 72.22430543 33.087677 70.77830505 C32.79994919 70.11051025 32.51222137 69.44271545 32.21577454 68.75468445 C29.46792256 62.7769012 26.00108566 59.5990585 20.01345825 56.88768005 C15.13240012 56.22584166 11.64795849 57.04862 7.32595825 59.38768005 Z M373.32595825 61.38768005 C368.92978105 66.97201325 368.20530332 71.43998193 368.18551636 78.39518738 C368.17980621 79.60069244 368.17409607 80.80619751 368.16821289 82.04823303 C368.16709503 83.3626236 368.16597717 84.67701416 368.16482544 86.03123474 C368.16019366 87.43607208 368.15516851 88.84090816 368.14978027 90.2457428 C368.1366886 94.05584639 368.1302176 97.86593239 368.12576962 101.67605495 C368.12283355 104.05931521 368.11872773 106.4425707 368.11426544 108.82582855 C368.10059877 116.29078865 368.09092816 123.75573782 368.08706355 131.22070956 C368.08258528 139.82249571 368.06504465 148.42412276 368.03606296 157.02586055 C368.01440909 163.68507355 368.00435729 170.34424191 368.00302243 177.00348973 C368.00197702 180.97596313 367.99612562 184.9482868 367.97820282 188.92072296 C367.96165795 192.66035115 367.95959748 196.39971809 367.96834183 200.13936996 C367.96947257 202.15460366 367.95580475 204.16982894 367.94158936 206.18501282 C367.85664826 217.33951908 367.85664826 217.33951908 372.77793503 227.00033188 C377.50912729 231.07590859 380.72591924 231.74362436 386.78689575 231.6650238 C390.55056227 231.25391561 392.54386013 229.90481645 395.32595825 227.38768005 C399.72213545 221.80334686 400.44661318 217.33537818 400.46640015 210.38017273 C400.47211029 209.17466766 400.47782043 207.9691626 400.48370361 206.72712708 C400.48482147 205.41273651 400.48593933 204.09834595 400.48709106 202.74412537 C400.49172285 201.33928803 400.49674799 199.93445195 400.50213623 198.52961731 C400.5152279 194.71951371 400.52169891 190.90942771 400.52614689 187.09930515 C400.52908296 184.7160449 400.53318878 182.3327894 400.53765106 179.94953156 C400.55131773 172.48457146 400.56098834 165.01962229 400.56485295 157.55465055 C400.56933123 148.9528644 400.58687185 140.35123735 400.61585355 131.74949956 C400.63750741 125.09028656 400.64755921 118.43111819 400.64889407 111.77187037 C400.64993949 107.79939698 400.65579088 103.82707331 400.67371368 99.85463715 C400.69025855 96.11500896 400.69231902 92.37564202 400.68357468 88.63599014 C400.68244393 86.62075645 400.69611175 84.60553117 400.71032715 82.59034729 C400.79526824 71.43584103 400.79526824 71.43584103 395.87398148 61.77502823 C391.14278922 57.69945152 387.92599727 57.03173574 381.86502075 57.1103363 C378.10135423 57.52144449 376.10805638 58.87054365 373.32595825 61.38768005 Z M100.32595825 134.45018005 C96.89880005 139.48381866 96.66827165 143.36660557 97.32595825 149.38768005 C99.67388483 154.26414295 102.61356679 156.79105619 107.32595825 159.38768005 C112.85806952 160.78161594 118.40532504 160.61015271 124.07595825 160.63768005 C125.122677 160.65830505 126.16939575 160.67893005 127.24783325 160.70018005 C134.00522414 160.73396701 141.63209275 160.69913362 146.94607544 155.93528748 C151.00885117 151.19466364 151.68192976 147.98981621 151.603302 141.92674255 C151.19219381 138.16307603 149.84309465 136.16977818 147.32595825 133.38768005 C140.18140934 127.76324793 133.30549554 128.18005645 124.57595825 128.13768005 C123.00588013 128.10674255 123.00588013 128.10674255 121.40408325 128.07518005 C113.72088162 128.03676405 105.65145183 128.23616198 100.32595825 134.45018005 Z " fill="#001942" transform="translate(55.674041748046875,111.61231994628906)"/>
</svg>
