<?xml version="1.0" encoding="UTF-8"?>
<svg version="1.1" xmlns="http://www.w3.org/2000/svg" width="512" height="512">
<path d="M0 0 C6.38048483 3.79413152 10.58468853 8.85888731 12.48046875 16.08984375 C12.74552704 19.04361522 12.73381015 21.97698221 12.70751953 24.94091797 C12.70781158 25.80986191 12.70810364 26.67880585 12.70840454 27.57408142 C12.70701713 30.43100149 12.69148368 33.28765703 12.67578125 36.14453125 C12.67204903 38.13135638 12.66920304 40.11818336 12.66720581 42.10501099 C12.65958584 47.32300945 12.63995138 52.54089579 12.61779785 57.7588501 C12.59730418 63.08791589 12.58819656 68.41699987 12.578125 73.74609375 C12.55670396 84.19405956 12.52258776 94.64194231 12.48046875 105.08984375 C14.12298866 105.07652008 14.12298866 105.07652008 15.7986908 105.06292725 C26.14127859 104.98167902 36.48380124 104.92180048 46.82663631 104.88259506 C52.14343045 104.86176121 57.45996599 104.83352035 62.77661133 104.78808594 C67.91189157 104.74447833 73.04692378 104.72067506 78.18237495 104.71033478 C80.13711003 104.70297014 82.09183223 104.68858886 84.04646111 104.66692352 C86.79420698 104.63769111 89.54094087 104.63389599 92.28881836 104.63574219 C93.08867661 104.62136108 93.88853485 104.60697998 94.71263123 104.59216309 C101.29309523 104.6396962 107.47712109 106.26486105 112.37229824 110.86931992 C118.0616557 117.20228354 118.99198754 122.08783754 118.859375 130.6015625 C118.1692508 136.95497397 115.14094426 140.75508781 110.54296875 144.96484375 C104.71832218 149.00643525 99.47925555 149.37765397 92.62939453 149.31689453 C91.76045059 149.31718658 90.89150665 149.31747864 89.99623108 149.31777954 C87.13931101 149.31639213 84.28265547 149.30085868 81.42578125 149.28515625 C79.43895612 149.28142403 77.45212914 149.27857804 75.46530151 149.27658081 C70.24730305 149.26896084 65.02941671 149.24932638 59.8114624 149.22717285 C54.48239661 149.20667918 49.15331263 149.19757156 43.82421875 149.1875 C33.37625294 149.16607896 22.92837019 149.13196276 12.48046875 149.08984375 C12.4893512 150.18485703 12.49823364 151.2798703 12.50738525 152.4080658 C12.58863348 162.75065359 12.64851202 173.09317624 12.68771744 183.43601131 C12.70855129 188.75280545 12.73679215 194.06934099 12.78222656 199.38598633 C12.82583417 204.52126657 12.84963744 209.65629878 12.85997772 214.79174995 C12.86734236 216.74648503 12.88172364 218.70120723 12.90338898 220.65583611 C12.93262139 223.40358198 12.93641651 226.15031587 12.93457031 228.89819336 C12.94895142 229.69805161 12.96333252 230.49790985 12.97814941 231.32200623 C12.9306163 237.90247023 11.30545145 244.08649609 6.70099258 248.98167324 C0.36802896 254.6710307 -4.51752504 255.60136254 -13.03125 255.46875 C-19.38466147 254.7786258 -23.18477531 251.75031926 -27.39453125 247.15234375 C-31.43612275 241.32769718 -31.80734147 236.08863055 -31.74658203 229.23876953 C-31.74687408 228.36982559 -31.74716614 227.50088165 -31.74746704 226.60560608 C-31.74607963 223.74868601 -31.73054618 220.89203047 -31.71484375 218.03515625 C-31.71111153 216.04833112 -31.70826554 214.06150414 -31.70626831 212.07467651 C-31.69864834 206.85667805 -31.67901388 201.63879171 -31.65686035 196.4208374 C-31.63636668 191.09177161 -31.62725906 185.76268763 -31.6171875 180.43359375 C-31.59576646 169.98562794 -31.56165026 159.53774519 -31.51953125 149.08984375 C-32.61454453 149.0987262 -33.7095578 149.10760864 -34.8377533 149.11676025 C-45.18034109 149.19800848 -55.52286374 149.25788702 -65.86569881 149.29709244 C-71.18249295 149.31792629 -76.49902849 149.34616715 -81.81567383 149.39160156 C-86.95095407 149.43520917 -92.08598628 149.45901244 -97.22143745 149.46935272 C-99.17617253 149.47671736 -101.13089473 149.49109864 -103.08552361 149.51276398 C-105.83326948 149.54199639 -108.58000337 149.54579151 -111.32788086 149.54394531 C-112.12773911 149.55832642 -112.92759735 149.57270752 -113.75169373 149.58752441 C-120.33215773 149.5399913 -126.51618359 147.91482645 -131.41136074 143.31036758 C-137.1007182 136.97740396 -138.03105004 132.09184996 -137.8984375 123.578125 C-137.2083133 117.22471353 -134.18000676 113.42459969 -129.58203125 109.21484375 C-123.75738468 105.17325225 -118.51831805 104.80203353 -111.66845703 104.86279297 C-110.79951309 104.86250092 -109.93056915 104.86220886 -109.03529358 104.86190796 C-106.17837351 104.86329537 -103.32171797 104.87882882 -100.46484375 104.89453125 C-98.47801862 104.89826347 -96.49119164 104.90110946 -94.50436401 104.90310669 C-89.28636555 104.91072666 -84.06847921 104.93036112 -78.8505249 104.95251465 C-73.52145911 104.97300832 -68.19237513 104.98211594 -62.86328125 104.9921875 C-52.41531544 105.01360854 -41.96743269 105.04772474 -31.51953125 105.08984375 C-31.5284137 103.99483047 -31.53729614 102.8998172 -31.54644775 101.7716217 C-31.62769598 91.42903391 -31.68757452 81.08651126 -31.72677994 70.74367619 C-31.74761379 65.42688205 -31.77585465 60.11034651 -31.82128906 54.79370117 C-31.86489667 49.65842093 -31.88869994 44.52338872 -31.89904022 39.38793755 C-31.90640486 37.43320247 -31.92078614 35.47848027 -31.94245148 33.52385139 C-31.97168389 30.77610552 -31.97547901 28.02937163 -31.97363281 25.28149414 C-31.98801392 24.48163589 -32.00239502 23.68177765 -32.01721191 22.85768127 C-31.9696788 16.27721727 -30.34451395 10.09319141 -25.74005508 5.19801426 C-18.45655832 -1.3452756 -9.53888582 -3.44583007 0 0 Z " fill="#FFFFFF" transform="translate(265.51953125,128.91015625)"/>
</svg>
