<svg version="1.1" id="Layer_1" xmlns="http://www.w3.org/2000/svg" xmlns:xlink="http://www.w3.org/1999/xlink" x="0px" y="0px"
	 width="100%" viewBox="0 0 512 512" enable-background="new 0 0 512 512" xml:space="preserve">
<path fill="#000000" opacity="1.000000" stroke="none" 
	d="
M278.000000,513.000000 
	C185.355820,513.000000 93.211639,513.000000 1.033728,513.000000 
	C1.033728,342.397461 1.033728,171.794907 1.033728,1.096182 
	C171.560867,1.096182 342.121796,1.096182 512.841370,1.096182 
	C512.841370,171.666550 512.841370,342.333252 512.841370,513.000000 
	C434.794891,513.000000 356.647430,513.000000 278.000000,513.000000 
M235.000000,196.500000 
	C235.000000,209.261734 235.000000,222.023483 235.000000,235.000000 
	C206.460495,235.000000 178.489197,234.859528 150.522446,235.152466 
	C146.358902,235.196075 141.716644,236.450165 138.167587,238.590057 
	C130.506805,243.209122 126.266075,255.279938 129.242126,263.447388 
	C132.490738,272.362854 139.462341,278.923523 151.011795,278.967987 
	C177.337692,279.069366 203.664261,279.000000 229.990555,279.000000 
	C231.588852,279.000000 233.187134,279.000000 235.000000,279.000000 
	C235.000000,307.539581 234.859512,335.510864 235.152466,363.477661 
	C235.196091,367.641174 236.450165,372.283478 238.590103,375.832458 
	C243.209457,383.493469 255.279984,387.734039 263.447479,384.757874 
	C272.363190,381.509094 278.923553,374.537262 278.968018,362.988129 
	C279.069366,336.662231 279.000000,310.335663 279.000000,284.009369 
	C279.000000,282.411102 279.000000,280.812805 279.000000,279.000000 
	C307.373016,279.000000 335.177368,278.854706 362.978943,279.068115 
	C374.888184,279.159546 384.835388,268.349640 385.309753,258.522095 
	C385.996490,244.293793 374.388458,234.871597 362.987823,234.945663 
	C336.662659,235.116714 310.335602,235.000000 284.009308,235.000000 
	C282.411041,235.000000 280.812744,235.000000 279.000000,235.000000 
	C279.000000,232.953903 279.000000,231.476639 279.000000,229.999374 
	C279.000000,203.339844 279.361603,176.673553 278.864319,150.023300 
	C278.566162,134.045761 263.524506,124.142494 247.626678,130.886932 
	C238.792358,134.634796 235.150314,141.880508 235.045761,151.012421 
	C234.875977,165.839844 235.000000,180.670639 235.000000,196.500000 
z"/>
<path fill="#FFFFFF" opacity="1.000000" stroke="none" 
	d="
M235.000000,196.000000 
	C235.000000,180.670639 234.875977,165.839844 235.045761,151.012421 
	C235.150314,141.880508 238.792358,134.634796 247.626678,130.886932 
	C263.524506,124.142494 278.566162,134.045761 278.864319,150.023300 
	C279.361603,176.673553 279.000000,203.339844 279.000000,229.999374 
	C279.000000,231.476639 279.000000,232.953903 279.000000,235.000000 
	C280.812744,235.000000 282.411041,235.000000 284.009308,235.000000 
	C310.335602,235.000000 336.662659,235.116714 362.987823,234.945663 
	C374.388458,234.871597 385.996490,244.293793 385.309753,258.522095 
	C384.835388,268.349640 374.888184,279.159546 362.978943,279.068115 
	C335.177368,278.854706 307.373016,279.000000 279.000000,279.000000 
	C279.000000,280.812805 279.000000,282.411102 279.000000,284.009369 
	C279.000000,310.335663 279.069366,336.662231 278.968018,362.988129 
	C278.923553,374.537262 272.363190,381.509094 263.447479,384.757874 
	C255.279984,387.734039 243.209457,383.493469 238.590103,375.832458 
	C236.450165,372.283478 235.196091,367.641174 235.152466,363.477661 
	C234.859512,335.510864 235.000000,307.539581 235.000000,279.000000 
	C233.187134,279.000000 231.588852,279.000000 229.990555,279.000000 
	C203.664261,279.000000 177.337692,279.069366 151.011795,278.967987 
	C139.462341,278.923523 132.490738,272.362854 129.242126,263.447388 
	C126.266075,255.279938 130.506805,243.209122 138.167587,238.590057 
	C141.716644,236.450165 146.358902,235.196075 150.522446,235.152466 
	C178.489197,234.859528 206.460495,235.000000 235.000000,235.000000 
	C235.000000,222.023483 235.000000,209.261734 235.000000,196.000000 
z"/>
</svg>