<?xml version="1.0" encoding="UTF-8"?>
<svg version="1.1" xmlns="http://www.w3.org/2000/svg" width="512" height="512">
<path d="M0 0 C4.29566089 0.01026122 8.5912908 0.00069849 12.88695335 -0.00554466 C20.09522798 -0.01278345 27.30333767 -0.00333325 34.51158714 0.01581764 C42.79713014 0.03757911 51.08227916 0.03052504 59.36781263 0.00851202 C66.53361191 -0.00975035 73.69929389 -0.01214783 80.86510897 -0.0017333 C85.122166 0.00444258 89.37903903 0.00550308 93.6360836 -0.00787926 C129.63184658 -0.10559713 159.90231618 6.10798322 186.7523098 31.78730202 C210.4105639 56.37265751 217.427337 86.29900021 217.29186058 119.507761 C217.29129516 121.47053967 217.29161557 123.43331876 217.29274559 125.39609718 C217.293315 130.67813621 217.28162796 135.96008277 217.26759768 141.24210048 C217.25502108 146.77938466 217.25391439 152.3166714 217.25154686 157.85396767 C217.24535233 168.31890671 217.22896917 178.78380352 217.20884788 189.24872404 C217.18642549 201.17145098 217.17547956 213.09418003 217.16545701 225.01692283 C217.14460098 249.52373922 217.10946476 274.03051824 217.0648098 298.53730202 C217.84115273 298.5310833 218.61749565 298.52486458 219.41736412 298.51845741 C222.96780295 298.493625 226.51822342 298.47827731 230.06871605 298.46308327 C231.28998192 298.45313332 232.51124779 298.44318336 233.76952171 298.4329319 C242.3006179 298.40555632 249.91081223 298.84113415 258.0648098 301.53730202 C259.07930199 301.86601295 260.09379417 302.19472389 261.13902855 302.53339577 C276.23599189 308.11985211 288.15363527 319.20291114 295.4398098 333.41230202 C295.76175316 334.0356443 296.08369652 334.65898659 296.41539574 335.30121803 C302.31185097 347.54182233 302.51067228 359.79973996 302.57604027 373.06659889 C302.38151575 386.60190347 302.38151575 386.60190347 308.4398098 398.34980202 C314.10940951 403.07446844 318.65258526 404.71808798 326.0648098 404.53730202 C332.86043161 403.21593111 336.93376164 399.65776539 340.8148098 393.97480202 C343.33750862 389.05553933 343.21661121 384.29347451 343.22302818 378.85608864 C343.23043515 377.52789112 343.23043515 377.52789112 343.23799175 376.17286134 C343.25337278 373.20026794 343.26172904 370.22769616 343.27013206 367.25507545 C343.27971011 365.12643175 343.28972015 362.99778996 343.30013084 360.86915016 C343.32719393 355.08445972 343.34819592 349.29976111 343.36813283 343.5150423 C343.3899837 337.47184888 343.41737679 331.42868067 343.44418907 325.38550758 C343.49412811 313.93921396 343.53906246 302.49290634 343.58221143 291.04658532 C343.63157345 278.01649405 343.68649543 264.98642809 343.74189103 251.95636129 C343.85572967 225.15003181 343.96256463 198.34367805 344.0648098 171.53730202 C342.4102578 171.55107887 342.4102578 171.55107887 340.7222805 171.56513405 C330.04485424 171.48388269 320.54238308 165.97877112 312.8148098 158.91230202 C305.7726994 151.45678838 300.9752129 141.02373115 301.09920311 130.66350746 C301.33195255 127.37108834 301.62281552 124.08655203 301.9163723 120.79902077 C304.68040234 89.43353694 304.68040234 89.43353694 292.1663723 61.88886452 C285.52560165 54.71102387 278.00758179 48.25603178 270.09401512 42.51365089 C264.00514203 38.02402955 259.91147505 32.87580407 258.43590355 25.31464577 C258.61008585 17.86579087 259.49391613 12.32820335 264.7132473 6.78730202 C269.41124441 2.5201256 273.80189866 0.26177689 280.2523098 0.09980202 C281.11211449 0.05984108 281.97191917 0.01988014 282.85777855 -0.02129173 C294.27097628 1.9666343 301.58585839 10.35093746 309.34215355 18.22089577 C310.60100507 19.48146301 311.86075284 20.7411358 313.12134361 21.99996376 C315.75388317 24.6341501 318.37774758 27.27658271 320.99522972 29.92572975 C324.31415458 33.28412345 327.6502334 36.62479773 330.99270344 39.95974064 C333.59573149 42.55966376 336.19100488 45.16721975 338.78398895 47.77715683 C340.00943259 49.00952755 341.23672652 50.24006178 342.46606827 51.46854401 C358.64413444 67.66380391 371.82047121 85.01603778 380.0648098 106.53730202 C380.44379417 107.5208567 380.82277855 108.50441139 381.2132473 109.51777077 C387.23066324 126.2805723 387.50446862 142.59804086 387.46886253 160.19819069 C387.47457434 162.76070896 387.48154172 165.32322469 387.48966026 167.88573647 C387.50566479 174.08696352 387.50771197 180.28805314 387.50244736 186.48929449 C387.49838554 191.5331477 387.4998729 196.5769711 387.50519562 201.62082291 C387.50594404 202.34204632 387.50669246 203.06326972 387.50746356 203.80634839 C387.50899521 205.27202334 387.51053356 206.73769829 387.51207853 208.20337323 C387.5257621 221.90403961 387.52039394 235.60464866 387.50889332 249.30531368 C387.49895331 261.8147662 387.51192221 274.32407096 387.53582751 286.83350071 C387.56025657 299.71509671 387.56981778 312.596624 387.56317478 325.4782427 C387.55969255 332.69571347 387.56184915 339.91307055 387.57942581 347.13052368 C387.59574421 353.91459478 387.59090743 360.69833909 387.57212067 367.48241806 C387.56844343 369.96514648 387.57151783 372.44789595 387.58200645 374.93060493 C387.67588816 398.99798536 387.67588816 398.99798536 383.0648098 409.53730202 C382.67648192 410.45170146 382.28815405 411.3661009 381.88805866 412.30820942 C374.36803217 429.24075972 359.87808412 439.89499461 343.2054348 446.70527077 C326.91480705 451.71958249 307.5525777 449.63548956 292.5648098 442.03730202 C276.09877004 433.10937543 265.86685136 418.89252167 259.95934105 401.23261452 C258.32415786 394.37968843 258.6646406 387.11176382 258.5648098 380.09980202 C258.98544409 362.50488804 258.98544409 362.50488804 251.0648098 347.53730202 C244.06552034 343.02136702 237.75718274 342.8863307 229.5648098 342.78730202 C228.36082542 342.75765358 227.15684105 342.72800514 225.9163723 342.69745827 C222.96578587 342.62720621 220.01596924 342.57428716 217.0648098 342.53730202 C217.07480255 343.8082547 217.07480255 343.8082547 217.08499718 345.10488319 C217.14567112 353.17809667 217.19106555 361.25123112 217.22024632 369.32462215 C217.23575382 373.47300876 217.25671078 377.62120351 217.29112816 381.76947975 C217.60777129 420.98701116 212.89393323 453.78701133 184.8148098 483.22480202 C163.8733681 503.40367021 137.57587284 512.85080429 108.68956566 512.82782936 C107.17036679 512.83382683 105.65117094 512.84063514 104.13197899 512.84818459 C100.03442846 512.86573213 95.93696165 512.8705353 91.83937716 512.87181616 C89.26940227 512.87324522 86.69944815 512.87752909 84.12947845 512.88281059 C75.13500829 512.90127676 66.14059712 512.90948588 57.14610863 512.90790749 C48.80904631 512.90670842 40.47224383 512.92777333 32.13524717 512.95939481 C24.93988694 512.98569735 17.74461081 512.9962689 10.54920298 512.99499667 C6.26853972 512.99449093 1.98810749 512.99995525 -2.29250717 513.02135277 C-39.68723014 513.19522974 -68.95443247 506.26348698 -96.57972145 480.02558327 C-120.84942155 455.06792316 -125.57177119 424.29457544 -125.45808887 390.98188305 C-125.44893912 387.00633089 -125.46305665 383.03084568 -125.47400856 379.05530739 C-125.49169377 371.29121603 -125.48799876 363.5272803 -125.476358 355.76318312 C-125.46728427 349.44701147 -125.4661166 343.13088311 -125.47045326 336.8147068 C-125.47106619 335.91202415 -125.47167913 335.00934149 -125.47231063 334.07930481 C-125.47358967 332.24489958 -125.47488653 330.41049435 -125.476201 328.57608914 C-125.4875775 311.41872819 -125.47453925 294.26145306 -125.45299953 277.10410619 C-125.43513123 262.41708166 -125.43823616 247.73018364 -125.45667458 233.04316139 C-125.47813325 215.94263252 -125.48647914 198.84217865 -125.47422552 181.74163818 C-125.47295147 179.91439121 -125.47169398 178.08714423 -125.47045326 176.25989723 C-125.46983616 175.36111166 -125.46921906 174.46232609 -125.46858326 173.53630459 C-125.46514531 167.23569492 -125.47092494 160.93513326 -125.48037148 154.63453102 C-125.49164858 146.94475942 -125.48843242 139.25515091 -125.4672485 131.56539774 C-125.45681425 127.65013638 -125.45248396 123.73514585 -125.46584511 119.81988716 C-125.57909628 83.57425776 -117.68816897 55.49339319 -92.42347145 28.89277077 C-66.48983795 3.67400006 -34.408219 -0.10816481 0 0 Z M-66.18909645 64.91620827 C-94.87536481 98.82805872 -81.9351902 155.46041538 -81.9351902 192.53730202 C2.2148098 192.53730202 86.3648098 192.53730202 173.0648098 192.53730202 C180.19215368 122.76887644 180.19215368 122.76887644 153.88902855 61.19745827 C139.14210054 47.30719827 121.65105894 43.06130505 101.78600121 43.13324928 C100.42074596 43.12752709 99.05549549 43.1205558 97.6902523 43.11245155 C94.02683006 43.09470805 90.36364977 43.09565258 86.7001977 43.10139394 C83.62166463 43.10451359 80.54317621 43.0983628 77.46464956 43.09235519 C70.1916824 43.07837308 62.91883287 43.07981803 55.64586449 43.0912571 C48.18742608 43.10272994 40.72934764 43.08866233 33.27095664 43.06186062 C26.82544157 43.03958125 20.38003847 43.03309363 13.9344877 43.03893703 C10.10330468 43.04227903 6.27235214 43.04007835 2.44120216 43.022686 C-24.05356815 42.91390812 -46.82697377 44.48027635 -66.18909645 64.91620827 Z M-81.9351902 235.53730202 C-82.0176902 264.41230202 -82.1001902 293.28730202 -82.1851902 323.03730202 C-82.22160622 332.13228249 -82.25802223 341.22726295 -82.29554176 350.59784889 C-82.30892498 358.79785808 -82.30892498 358.79785808 -82.3169651 366.99787331 C-82.32067021 370.63143759 -82.33557341 374.26476472 -82.35749245 377.89826393 C-82.38518259 382.55096301 -82.39310861 387.2033234 -82.38747931 391.85609722 C-82.38865425 393.55243299 -82.39643498 395.24878213 -82.41205072 396.94504642 C-82.59488548 417.7951152 -77.67760585 436.03028782 -62.9351902 451.53730202 C-43.55417485 469.89993889 -20.46616662 470.1624124 4.63220978 470.07460403 C8.49106098 470.0643447 12.34987764 470.07390503 16.2087307 470.0801487 C22.68410233 470.08738803 29.15929038 470.07793588 35.63463402 470.05878639 C43.07835911 470.03702474 50.52164567 470.04407877 57.96536016 470.06609201 C64.4024353 470.08435286 70.83937985 470.08675262 77.27647257 470.07633734 C81.10090393 470.07016059 84.92513046 470.06910331 88.74954796 470.08248329 C112.92210912 470.15539037 135.467621 469.42839525 154.0035305 451.7968235 C167.084503 438.72474509 173.32521017 422.38550119 173.43968087 404.03748059 C173.43803642 401.60597557 173.4218298 399.17480337 173.40538597 396.7433567 C173.40446527 394.94969261 173.40487032 393.15602743 173.40648174 391.36236382 C173.40715455 386.59147051 173.38986204 381.82080638 173.36865044 377.04996681 C173.35147039 372.56087519 173.35075593 368.0718372 173.34862328 363.58271217 C173.33292815 350.48421218 173.29104436 337.38575414 173.2523098 324.28730202 C173.1594973 280.35605202 173.1594973 280.35605202 173.0648098 235.53730202 C88.9148098 235.53730202 4.7648098 235.53730202 -81.9351902 235.53730202 Z " fill="#488ABD" transform="translate(124.93519020080566,-0.5373020172119141)"/>
</svg>
