<?xml version="1.0" encoding="UTF-8"?>
<svg version="1.1" xmlns="http://www.w3.org/2000/svg" width="512" height="512">
<path d="M0 0 C2.71279175 -0.00239342 5.42554573 -0.01225385 8.13832092 -0.02168274 C14.68885518 -0.03989352 21.23908769 -0.03166021 27.78961202 -0.01359452 C33.11983159 0.00052853 38.44997019 0.00430366 43.78020668 0.00096321 C44.5437148 0.00048577 45.30722293 0.00000833 46.09386766 -0.00048358 C47.6456983 -0.00151008 49.19752892 -0.00256545 50.74935953 -0.00364935 C64.41695048 -0.01218243 78.08439727 0.00434954 91.75195312 0.03417969 C104.96913706 0.06302584 118.18611351 0.07008813 131.40332031 0.0546875 C145.85271292 0.0378738 160.30200743 0.03394227 174.75140268 0.05139786 C176.2960687 0.05324195 177.84073473 0.05507668 179.38540077 0.05690193 C180.52494341 0.05827007 180.52494341 0.05827007 181.68750712 0.05966584 C187.00380278 0.0652379 192.32005001 0.06199558 197.636343 0.05535698 C204.12565468 0.04757399 210.61476326 0.05455351 217.10403439 0.07953202 C220.40574412 0.0919116 223.70688129 0.09612249 227.00864029 0.08699036 C244.33624481 0.04461464 261.01655358 0.7443314 277.13208008 7.81860352 C277.82052002 8.1126709 278.50895996 8.40673828 279.21826172 8.7097168 C290.68029438 13.79486401 300.40868428 20.88161202 309.38208008 29.63110352 C310.24833008 30.45610352 311.11458008 31.28110352 312.00708008 32.13110352 C312.79083008 32.95610352 313.57458008 33.78110352 314.38208008 34.63110352 C314.9621582 35.21633789 315.54223633 35.80157227 316.13989258 36.40454102 C329.18819616 50.16922205 336.01303066 67.24717203 340.31567383 85.45532227 C340.60873917 86.6859993 340.9018045 87.91667633 341.20375061 89.18464661 C341.88056481 92.03153024 342.55354249 94.87929545 343.22460938 97.72753906 C344.04302202 101.19972998 344.86707142 104.67053252 345.69433594 108.140625 C348.50028183 119.91967215 351.2581846 131.70860989 353.95276642 143.51366425 C355.25712584 149.22261494 356.57808397 154.92653677 357.93994141 160.62207031 C363.43768981 183.66375085 368.42730925 206.13943912 368.32348633 229.93188477 C368.32204054 230.77915823 368.32059475 231.62643169 368.31910515 232.49938011 C368.20220955 246.44948352 366.34074432 260.48267551 359.63208008 272.94360352 C359.3355957 273.54237305 359.03911133 274.14114258 358.73364258 274.75805664 C357.18983657 277.74839633 355.58473573 280.38604639 353.43154526 282.98974705 C347.62102433 290.07791327 346.2355616 295.08023105 346.44555664 304.12890625 C346.44106003 305.32733658 346.43656342 306.52576691 346.43193054 307.76051331 C346.42673093 311.01828311 346.45636149 314.27347576 346.50072575 317.53087115 C346.53789357 320.97014242 346.52591549 324.40923484 346.51849365 327.84864807 C346.51101599 334.36965216 346.54059561 340.88985675 346.5867126 347.41068274 C346.66870372 359.03987785 346.70605459 370.66907517 346.70210433 382.29855496 C346.70236297 385.70529822 346.71231584 389.11144211 346.74567413 392.51803398 C347.04645256 424.49594489 341.63225545 450.04224555 321.38208008 475.63110352 C320.8793457 476.28981445 320.37661133 476.94852539 319.85864258 477.62719727 C315.45853427 483.13369119 309.93156567 487.33868372 304.38208008 491.63110352 C303.2605957 492.52829102 303.2605957 492.52829102 302.11645508 493.44360352 C284.59882489 506.67370184 263.56028884 512.78904654 241.85949707 512.77154541 C240.70437071 512.77451653 239.54924436 512.77748765 238.35911417 512.78054881 C235.1658332 512.78770374 231.9725851 512.79040615 228.77929735 512.79114628 C225.3298791 512.79300385 221.88047234 512.80055478 218.43106079 512.80728149 C210.89352006 512.82083788 203.35598466 512.82688557 195.81843376 512.83129215 C191.10639713 512.83405962 186.39436253 512.83829793 181.68232727 512.84279633 C168.62066527 512.85498638 155.5590049 512.86528562 142.49733734 512.86867142 C141.66205502 512.86889098 140.82677271 512.86911055 139.9661788 512.86933677 C138.71035385 512.86966419 138.71035385 512.86966419 137.42915869 512.86999822 C135.73280175 512.87044167 134.03644482 512.87088824 132.34008789 512.87133789 C131.49864646 512.87155932 130.65720503 512.87178075 129.79026538 512.87200889 C116.16938135 512.87595319 102.54855093 512.89339714 88.92768759 512.91669741 C74.92314774 512.94045938 60.91863474 512.9528755 46.91407442 512.95403934 C39.05925862 512.95495347 31.20451266 512.9606395 23.34971619 512.97885895 C16.65838103 512.99432561 9.9671373 512.99934201 3.27578765 512.99112085 C-0.13272803 512.98723713 -3.54091162 512.98969216 -6.94942856 513.00217819 C-37.56426397 513.10770242 -64.12297234 507.31468985 -87.61791992 486.63110352 C-88.64916992 485.84735352 -89.68041992 485.06360352 -90.74291992 484.25610352 C-109.00653527 467.58062864 -121.34472263 442.20497125 -123.61791992 417.63110352 C-123.74178453 413.57347322 -123.71042494 409.51950623 -123.68041992 405.46044922 C-123.67097822 402.95201202 -123.66179422 400.44357384 -123.65283203 397.93513489 C-123.64650888 396.59778642 -123.64015049 395.26043812 -123.63375854 393.92308998 C-123.61570288 389.76480326 -123.61384551 385.60660778 -123.61621094 381.44828796 C-123.6165801 380.7441479 -123.61694925 380.04000784 -123.6173296 379.31453019 C-123.61909314 376.41297453 -123.6213029 373.51141926 -123.62347603 370.60986388 C-123.62872312 362.40128268 -123.61906298 354.19329589 -123.56665039 345.98486328 C-123.52502107 339.44754053 -123.51553166 332.91103576 -123.54276085 326.37362546 C-123.55593325 322.92198541 -123.5534421 319.47204256 -123.51171875 316.02059364 C-122.57561035 299.08126263 -122.57561035 299.08126263 -129.04248047 284.09375 C-130.53753577 282.57596116 -132.05823394 281.08239706 -133.61791992 279.63110352 C-135.17066421 277.2693628 -136.24346538 274.96535898 -137.43041992 272.38110352 C-138.21352539 270.73368164 -138.21352539 270.73368164 -139.01245117 269.05297852 C-143.89388682 256.62775944 -145.62916323 243.92153236 -145.72338867 230.67407227 C-145.73069693 229.8034786 -145.73800518 228.93288494 -145.7455349 228.03590965 C-145.73226537 200.97067228 -138.61076513 174.52666445 -132.42993343 148.33595073 C-130.74257245 141.17499156 -129.11859995 134.0000365 -127.4948374 126.82444441 C-126.08560801 120.6075207 -124.65955886 114.39443698 -123.23120117 108.18188477 C-123.08194317 107.5318071 -122.93268517 106.88172944 -122.7789042 106.21195245 C-114.54311994 70.38328065 -114.54311994 70.38328065 -107.93041992 57.50610352 C-107.59357178 56.84634521 -107.25672363 56.18658691 -106.90966797 55.50683594 C-96.27632446 35.40872797 -78.7732011 19.94824875 -58.61791992 9.88110352 C-57.93842285 9.52822266 -57.25892578 9.1753418 -56.55883789 8.81176758 C-38.65499417 0.31272877 -19.41185759 -0.09465921 0 0 Z M-60.61791992 65.63110352 C-68.91095923 75.55531048 -73.01331704 86.70103309 -75.71557617 99.20141602 C-76.15616944 101.16347228 -76.59681229 103.12551763 -77.03853321 105.08732033 C-77.53450419 107.29667932 -78.0252958 109.50715583 -78.51617432 111.71765137 C-79.72552074 117.13850232 -80.9812599 122.54834764 -82.23852539 127.95825195 C-84.45232319 137.4901606 -86.63609525 147.02853106 -88.79741478 156.57247543 C-90.0519739 162.10869723 -91.31629644 167.64230141 -92.60302734 173.17114258 C-93.87257075 178.62774958 -95.11595577 184.0897568 -96.34248543 189.55618668 C-96.8051244 191.59824485 -97.27642619 193.63836533 -97.75756645 195.67614365 C-102.36961433 215.25845853 -106.08368333 238.56069236 -95.86791992 256.94360352 C-88.83834791 267.71194299 -79.54023057 274.07271369 -67.04052734 277.03344727 C-60.90968149 278.10401654 -54.82544417 278.06253555 -48.61791992 278.00610352 C-46.70366211 278.02350586 -46.70366211 278.02350586 -44.75073242 278.04125977 C-30.5476876 277.99769214 -18.4900812 275.23623783 -7.86791992 265.38110352 C0.97698835 255.84779436 3.64228009 245.35735724 5.31958008 232.75610352 C6.24974106 226.37458921 8.05083842 222.7830189 12.81958008 218.38110352 C18.74426242 214.33497899 24.3609525 213.7206097 31.38208008 214.63110352 C36.46718824 216.2858943 40.27756312 218.41613486 43.88208008 222.38110352 C46.18286527 227.36613811 47.10592162 232.23773021 47.73364258 237.67797852 C49.28813171 250.41869332 54.40397583 261.20470395 64.51098633 269.34594727 C72.28222035 274.87365981 80.98835742 277.71788308 90.53271484 277.79223633 C91.53468399 277.80184387 92.53665314 277.81145142 93.56898499 277.8213501 C95.17996315 277.82772491 95.17996315 277.82772491 96.82348633 277.83422852 C98.5014756 277.84277863 98.5014756 277.84277863 100.21336365 277.85150146 C102.5811977 277.86093946 104.94904481 277.86748067 107.31689453 277.87133789 C110.9072217 277.88100295 114.49696626 277.91202187 118.0871582 277.94360352 C120.39509754 277.95013832 122.70304094 277.95538691 125.01098633 277.95922852 C126.07080215 277.97157532 127.13061798 277.98392212 128.22254944 277.99664307 C141.63064894 277.95734845 152.6355909 274.63731387 162.67114258 265.56079102 C171.13475592 256.71679055 173.86178276 247.21768309 175.30712891 235.35620117 C176.25961197 227.87053262 178.46220924 222.60917672 184.38208008 217.63110352 C190.20732024 214.25246422 195.71964306 213.77792813 202.38208008 214.63110352 C208.32587275 216.41122416 211.89257282 219.60210776 215.38208008 224.63110352 C217.38404846 228.73622279 217.79591231 232.70805532 218.19458008 237.19360352 C219.67316949 250.36116349 224.45470904 259.64850425 234.38208008 268.63110352 C245.34656547 277.19984011 257.89912767 278.12867581 271.38208008 278.00610352 C273.29633789 278.02350586 273.29633789 278.02350586 275.24926758 278.04125977 C289.4523124 277.99769214 301.5099188 275.23623783 312.13208008 265.38110352 C323.70271378 252.90992521 325.04114461 238.86594741 324.78646851 222.55725098 C324.3146718 210.8534699 321.52158634 199.52363191 318.89272332 188.14976215 C318.10624383 184.72407163 317.34786273 181.29214349 316.585495 177.86102295 C315.30549398 172.11893581 314.00638301 166.38146173 312.69384766 160.64672852 C311.18482939 154.05295994 309.70154358 147.45382537 308.23278171 140.850981 C306.6530522 133.74999698 305.05638994 126.65290254 303.45392966 119.55701733 C302.99921099 117.53881468 302.54740846 115.51997782 302.0962162 113.50098419 C301.25093229 109.72386712 300.38649784 105.95126905 299.52001953 102.17895508 C299.27617523 101.08161041 299.03233093 99.98426575 298.78109741 98.85366821 C294.5115238 80.50548752 286.00513935 64.5200956 270.06958008 53.88110352 C256.91707831 45.97492742 244.41969608 43.25218882 229.19458008 43.50610352 C228.1472168 43.51512695 227.09985352 43.52415039 226.02075195 43.53344727 C223.47427494 43.55670276 220.92830977 43.58937783 218.38208008 43.63110352 C218.37994255 44.89445023 218.37994255 44.89445023 218.37776184 46.18331909 C218.35986369 54.15662765 218.3180495 62.12938606 218.24998951 70.10243034 C218.21583333 74.20060282 218.1906274 78.29840702 218.18652344 82.39672852 C218.18221582 86.35877278 218.15355209 90.31998791 218.1086483 94.28177261 C218.09575131 95.7862272 218.09133772 97.29078141 218.09592628 98.79528427 C218.11646618 107.58229047 217.76514563 115.29431473 212.38208008 122.63110352 C206.89301587 127.77502895 200.86383639 127.98441838 193.68286133 127.90454102 C188.2865445 127.45750885 184.48321645 125.94814613 180.82348633 121.91235352 C177.10819588 116.94459972 176.25502278 113.09240097 176.17675781 106.86474609 C176.16170873 105.82342419 176.16170873 105.82342419 176.14635563 104.76106548 C176.1149965 102.51595575 176.09021022 100.27082835 176.06567383 98.02563477 C176.04726799 96.63870674 176.02843118 95.25178437 176.00915527 93.86486816 C175.94073809 88.72451351 175.88066577 83.58405052 175.81958008 78.44360352 C175.67520508 66.95547852 175.53083008 55.46735352 175.38208008 43.63110352 C133.14208008 43.63110352 90.90208008 43.63110352 47.38208008 43.63110352 C47.29075563 66.59187166 47.29075563 66.59187166 47.2644043 89.55273438 C47.22802734 94.0189209 47.22802734 94.0189209 47.20339966 96.1174469 C47.19194479 97.56617288 47.19205114 99.01502117 47.20169067 100.46376038 C47.24720146 108.5964288 47.17660058 115.31101583 42.01419067 121.98902893 C37.15597421 126.87690467 32.55609472 127.86749501 25.75708008 128.06860352 C19.27584887 127.84408049 15.67281112 126.54892485 10.69458008 122.38110352 C6.25353952 117.09986609 5.01209414 112.30263633 4.94970703 105.50244141 C4.93441956 104.49141357 4.93441956 104.49141357 4.91882324 103.45996094 C4.8889086 101.25780697 4.87946101 99.05608945 4.87036133 96.85375977 C4.85349855 95.31675292 4.83534617 93.77975973 4.81596375 92.24278259 C4.7686308 88.21678943 4.73871387 84.19085166 4.71252441 80.16467285 C4.68263411 76.04855414 4.63613307 71.93262595 4.59106445 67.81665039 C4.50522165 59.75489542 4.43779234 51.69312277 4.38208008 43.63110352 C0.72717429 43.58522769 -2.92765606 43.55779332 -6.58276367 43.53344727 C-7.60801147 43.52035522 -8.63325928 43.50726318 -9.6895752 43.49377441 C-29.75146034 43.39376502 -47.02010047 51.00130669 -60.61791992 65.63110352 Z M25.38208008 292.63110352 C24.14171473 293.93302546 22.91547826 295.24840862 21.69458008 296.56860352 C12.54075489 305.7803643 0.73596337 312.65776042 -11.61791992 316.63110352 C-12.43397705 316.90180664 -13.25003418 317.17250977 -14.09082031 317.45141602 C-24.48052523 320.37678159 -34.95712763 320.01582266 -45.66699219 319.91235352 C-48.94046413 319.88100733 -52.21345279 319.8713509 -55.48706055 319.86547852 C-57.58927992 319.85631316 -59.69149444 319.84593888 -61.79370117 319.83422852 C-62.76157059 319.82997864 -63.72944 319.82572876 -64.72663879 319.8213501 C-65.64507065 319.81174255 -66.5635025 319.80213501 -67.50976562 319.79223633 C-68.70337456 319.78199432 -68.70337456 319.78199432 -69.9210968 319.77154541 C-73.51939441 319.58415762 -77.04622594 319.10651797 -80.61791992 318.63110352 C-80.66453468 329.69814508 -80.69993576 340.76516278 -80.72154427 351.83228302 C-80.73192221 356.97277833 -80.74597018 362.11320582 -80.76879883 367.25366211 C-80.7907431 372.22685907 -80.8025334 377.19999134 -80.80767441 382.17323303 C-80.81133184 384.05795813 -80.81847211 385.94268023 -80.82938004 387.82737732 C-80.96273939 411.85438244 -78.78362676 432.92667052 -61.55541992 451.31860352 C-47.65284267 464.64984197 -30.64589748 469.78775706 -11.69602966 469.77154541 C-10.06028704 469.77600209 -10.06028704 469.77600209 -8.3914991 469.78054881 C-4.74227414 469.78921109 -1.09308208 469.79074198 2.55615234 469.79223633 C5.17483083 469.79686628 7.79350864 469.80189118 10.41218567 469.80728149 C17.52405291 469.82083416 24.63591448 469.82688489 31.74779248 469.83129215 C36.19381596 469.83406006 40.63983728 469.83829843 45.0858593 469.84279633 C57.41064219 469.85498553 69.73542335 469.86528518 82.06021214 469.86867142 C82.84826423 469.86889098 83.63631633 469.86911055 84.4482488 469.86933677 C85.6330582 469.86966419 85.6330582 469.86966419 86.84180313 469.86999822 C88.44222423 469.87044167 90.04264532 469.87088824 91.64306641 469.87133789 C92.83384726 469.87167004 92.83384726 469.87167004 94.04868429 469.87200889 C106.90072872 469.87595363 119.75271634 469.89339933 132.60473884 469.91669741 C145.81939531 469.94045824 159.03402334 469.95287543 172.24870151 469.95403934 C179.66026877 469.9549535 187.07176202 469.9606402 194.48330879 469.97885895 C200.79661878 469.99432403 207.10983187 469.99934291 213.42315722 469.99112085 C216.63912177 469.9872367 219.85485254 469.98969402 223.07080078 470.00217819 C246.05974086 470.2474842 246.05974086 470.2474842 267.63208008 463.00610352 C268.29973389 462.6612793 268.9673877 462.31645508 269.65527344 461.96118164 C275.72061007 458.69427241 280.62346777 454.61084093 285.38208008 449.63110352 C286.0137207 449.01879883 286.64536133 448.40649414 287.29614258 447.77563477 C303.73545097 430.79317742 303.54254844 407.54535194 303.47973633 385.52563477 C303.47786805 383.59079526 303.47644608 381.65595527 303.47544861 379.72111511 C303.47165569 374.66269595 303.46185343 369.60430612 303.45074463 364.54589844 C303.44046068 359.37052812 303.43593611 354.19515301 303.4309082 349.01977539 C303.42022785 338.8902053 303.40319079 328.76065686 303.38208008 318.63110352 C302.16645386 318.79245285 300.95082764 318.95380219 299.69836426 319.12004089 C296.56159183 319.51108691 293.48529767 319.76851589 290.3215332 319.80810547 C288.95841003 319.82735832 288.95841003 319.82735832 287.56774902 319.84700012 C286.13006165 319.85808052 286.13006165 319.85808052 284.66333008 319.86938477 C283.64718628 319.87745651 282.63104248 319.88552826 281.58410645 319.8938446 C279.43930735 319.90761781 277.29448697 319.91836991 275.1496582 319.92626953 C272.98552898 319.93774989 270.82142719 319.95813851 268.6574707 319.98779297 C252.5946923 320.20734377 237.54734939 319.71634245 223.06958008 311.88110352 C222.08550171 311.36785522 222.08550171 311.36785522 221.08154297 310.84423828 C212.11455039 306.04436956 204.25578211 300.13821836 197.38208008 292.63110352 C196.47458008 293.43547852 195.56708008 294.23985352 194.63208008 295.06860352 C178.52816772 308.75208817 160.42408191 319.62167287 138.71264648 319.80810547 C137.4033316 319.8209407 136.09401672 319.83377594 134.74502563 319.84700012 C133.32456854 319.85517469 131.90410707 319.86261704 130.48364258 319.86938477 C129.75890118 319.87346029 129.03415977 319.87753582 128.28745651 319.88173485 C124.4435124 319.90254522 120.59960335 319.91686277 116.75561523 319.92626953 C112.83135198 319.93726158 108.9076671 319.971591 104.98360634 320.01144123 C101.9273491 320.03789937 98.87122291 320.04598731 95.8148613 320.04955101 C94.37109899 320.05435026 92.92733976 320.06576731 91.48369217 320.084589 C68.82185007 320.36143964 47.78832872 312.84074193 30.98364258 297.43188477 C29.42102439 295.85969953 27.89579536 294.25042684 26.38208008 292.63110352 C26.05208008 292.63110352 25.72208008 292.63110352 25.38208008 292.63110352 Z " fill="#FFFFFF" transform="translate(144.617919921875,-0.631103515625)"/>
</svg>
